<svg xmlns="http://www.w3.org/2000/svg" xmlns:xlink="http://www.w3.org/1999/xlink" width="250" zoomAndPan="magnify" viewBox="0 0 187.5 74.999997" height="100" preserveAspectRatio="xMidYMid meet" version="1.0"><defs><g/><clipPath id="f0a78b9f8f"><path d="M 156 1 L 184.746094 1 L 184.746094 38 L 156 38 Z M 156 1 " clip-rule="nonzero"/></clipPath><clipPath id="b93e656df9"><rect x="0" width="185" y="0" height="49"/></clipPath><clipPath id="85a80ef619"><path d="M 124.949219 32.535156 L 136.628906 32.535156 L 136.628906 42.652344 L 124.949219 42.652344 Z M 124.949219 32.535156 " clip-rule="nonzero"/></clipPath><clipPath id="f4bd1afba2"><path d="M 0.949219 0.535156 L 12.628906 0.535156 L 12.628906 10.652344 L 0.949219 10.652344 Z M 0.949219 0.535156 " clip-rule="nonzero"/></clipPath><clipPath id="fc94582e25"><rect x="0" width="13" y="0" height="11"/></clipPath><clipPath id="3fbc4c0920"><path d="M 121.042969 31.191406 L 135 31.191406 L 135 45 L 121.042969 45 Z M 121.042969 31.191406 " clip-rule="nonzero"/></clipPath><clipPath id="dba4ebba62"><path d="M 121.042969 31.191406 L 135.253906 31.191406 L 135.253906 45.402344 L 121.042969 45.402344 Z M 121.042969 31.191406 " clip-rule="nonzero"/></clipPath><clipPath id="e12a6c3f65"><path d="M 156 1 L 182.546875 1 L 182.546875 36 L 156 36 Z M 156 1 " clip-rule="nonzero"/></clipPath><clipPath id="a664502c5c"><rect x="0" width="183" y="0" height="49"/></clipPath><clipPath id="347001a9da"><path d="M 126.480469 32.332031 L 138.164062 32.332031 L 138.164062 43.464844 L 126.480469 43.464844 Z M 126.480469 32.332031 " clip-rule="nonzero"/></clipPath><clipPath id="79df56c092"><path d="M 0.480469 0.332031 L 12.164062 0.332031 L 12.164062 11.464844 L 0.480469 11.464844 Z M 0.480469 0.332031 " clip-rule="nonzero"/></clipPath><clipPath id="afc2715104"><rect x="0" width="13" y="0" height="12"/></clipPath><clipPath id="6b0e787a05"><path d="M 124.257812 32.332031 L 136 32.332031 L 136 44 L 124.257812 44 Z M 124.257812 32.332031 " clip-rule="nonzero"/></clipPath><clipPath id="c6915ad6fa"><path d="M 124.257812 32.332031 L 136 32.332031 L 136 44.300781 L 124.257812 44.300781 Z M 124.257812 32.332031 " clip-rule="nonzero"/></clipPath><clipPath id="ac0a74207d"><path d="M 42.855469 29.738281 L 48.042969 29.738281 L 48.042969 34.925781 L 42.855469 34.925781 Z M 42.855469 29.738281 " clip-rule="nonzero"/></clipPath><clipPath id="33dddc6c3e"><path d="M 45.449219 29.738281 C 44.015625 29.738281 42.855469 30.898438 42.855469 32.332031 C 42.855469 33.765625 44.015625 34.925781 45.449219 34.925781 C 46.878906 34.925781 48.042969 33.765625 48.042969 32.332031 C 48.042969 30.898438 46.878906 29.738281 45.449219 29.738281 Z M 45.449219 29.738281 " clip-rule="nonzero"/></clipPath><clipPath id="3d258006a0"><path d="M 0.855469 0.738281 L 6.042969 0.738281 L 6.042969 5.925781 L 0.855469 5.925781 Z M 0.855469 0.738281 " clip-rule="nonzero"/></clipPath><clipPath id="49cf0c6941"><path d="M 3.449219 0.738281 C 2.015625 0.738281 0.855469 1.898438 0.855469 3.332031 C 0.855469 4.765625 2.015625 5.925781 3.449219 5.925781 C 4.878906 5.925781 6.042969 4.765625 6.042969 3.332031 C 6.042969 1.898438 4.878906 0.738281 3.449219 0.738281 Z M 3.449219 0.738281 " clip-rule="nonzero"/></clipPath><clipPath id="09d844cfd4"><rect x="0" width="7" y="0" height="6"/></clipPath><clipPath id="c18940bdc5"><path d="M 42.855469 29.738281 L 48.03125 29.738281 L 48.03125 34.917969 L 42.855469 34.917969 Z M 42.855469 29.738281 " clip-rule="nonzero"/></clipPath><clipPath id="5d5a1aa2da"><path d="M 45.445312 29.738281 C 44.015625 29.738281 42.855469 30.898438 42.855469 32.328125 C 42.855469 33.757812 44.015625 34.917969 45.445312 34.917969 C 46.875 34.917969 48.03125 33.757812 48.03125 32.328125 C 48.03125 30.898438 46.875 29.738281 45.445312 29.738281 Z M 45.445312 29.738281 " clip-rule="nonzero"/></clipPath><clipPath id="008532e62d"><path d="M 42.855469 35.40625 L 48.042969 35.40625 L 48.042969 40.59375 L 42.855469 40.59375 Z M 42.855469 35.40625 " clip-rule="nonzero"/></clipPath><clipPath id="34c2555827"><path d="M 45.449219 35.40625 C 44.015625 35.40625 42.855469 36.566406 42.855469 38 C 42.855469 39.433594 44.015625 40.59375 45.449219 40.59375 C 46.878906 40.59375 48.042969 39.433594 48.042969 38 C 48.042969 36.566406 46.878906 35.40625 45.449219 35.40625 Z M 45.449219 35.40625 " clip-rule="nonzero"/></clipPath><clipPath id="f6a3bf52e6"><path d="M 0.855469 0.40625 L 6.042969 0.40625 L 6.042969 5.59375 L 0.855469 5.59375 Z M 0.855469 0.40625 " clip-rule="nonzero"/></clipPath><clipPath id="bdb71f5bfd"><path d="M 3.449219 0.40625 C 2.015625 0.40625 0.855469 1.566406 0.855469 3 C 0.855469 4.433594 2.015625 5.59375 3.449219 5.59375 C 4.878906 5.59375 6.042969 4.433594 6.042969 3 C 6.042969 1.566406 4.878906 0.40625 3.449219 0.40625 Z M 3.449219 0.40625 " clip-rule="nonzero"/></clipPath><clipPath id="e11bc86842"><rect x="0" width="7" y="0" height="6"/></clipPath><clipPath id="94458af1b0"><path d="M 42.855469 35.40625 L 48.03125 35.40625 L 48.03125 40.585938 L 42.855469 40.585938 Z M 42.855469 35.40625 " clip-rule="nonzero"/></clipPath><clipPath id="0577364180"><path d="M 45.445312 35.40625 C 44.015625 35.40625 42.855469 36.566406 42.855469 37.996094 C 42.855469 39.425781 44.015625 40.585938 45.445312 40.585938 C 46.875 40.585938 48.03125 39.425781 48.03125 37.996094 C 48.03125 36.566406 46.875 35.40625 45.445312 35.40625 Z M 45.445312 35.40625 " clip-rule="nonzero"/></clipPath><clipPath id="5080aa1324"><path d="M 42.855469 40.871094 L 48.042969 40.871094 L 48.042969 46.058594 L 42.855469 46.058594 Z M 42.855469 40.871094 " clip-rule="nonzero"/></clipPath><clipPath id="d3bb46ea0e"><path d="M 45.449219 40.871094 C 44.015625 40.871094 42.855469 42.035156 42.855469 43.464844 C 42.855469 44.898438 44.015625 46.058594 45.449219 46.058594 C 46.878906 46.058594 48.042969 44.898438 48.042969 43.464844 C 48.042969 42.035156 46.878906 40.871094 45.449219 40.871094 Z M 45.449219 40.871094 " clip-rule="nonzero"/></clipPath><clipPath id="c870f6a7ec"><path d="M 0.855469 0.871094 L 6.042969 0.871094 L 6.042969 6.058594 L 0.855469 6.058594 Z M 0.855469 0.871094 " clip-rule="nonzero"/></clipPath><clipPath id="1728dfdde5"><path d="M 3.449219 0.871094 C 2.015625 0.871094 0.855469 2.035156 0.855469 3.464844 C 0.855469 4.898438 2.015625 6.058594 3.449219 6.058594 C 4.878906 6.058594 6.042969 4.898438 6.042969 3.464844 C 6.042969 2.035156 4.878906 0.871094 3.449219 0.871094 Z M 3.449219 0.871094 " clip-rule="nonzero"/></clipPath><clipPath id="a5af8a4938"><rect x="0" width="7" y="0" height="7"/></clipPath><clipPath id="0a99588577"><path d="M 42.855469 40.871094 L 48.03125 40.871094 L 48.03125 46.050781 L 42.855469 46.050781 Z M 42.855469 40.871094 " clip-rule="nonzero"/></clipPath><clipPath id="5fd51c7c3b"><path d="M 45.445312 40.871094 C 44.015625 40.871094 42.855469 42.03125 42.855469 43.460938 C 42.855469 44.890625 44.015625 46.050781 45.445312 46.050781 C 46.875 46.050781 48.03125 44.890625 48.03125 43.460938 C 48.03125 42.03125 46.875 40.871094 45.445312 40.871094 Z M 45.445312 40.871094 " clip-rule="nonzero"/></clipPath><clipPath id="6f10e20d8c"><path d="M 41.269531 16.539062 L 49.628906 16.539062 L 49.628906 24.863281 L 41.269531 24.863281 Z M 41.269531 16.539062 " clip-rule="nonzero"/></clipPath><clipPath id="5056b68451"><path d="M 45.449219 16.539062 C 43.140625 16.539062 41.269531 18.402344 41.269531 20.699219 C 41.269531 23 43.140625 24.863281 45.449219 24.863281 C 47.753906 24.863281 49.625 23 49.625 20.699219 C 49.625 18.402344 47.753906 16.539062 45.449219 16.539062 Z M 45.449219 16.539062 " clip-rule="nonzero"/></clipPath><clipPath id="042f7746b8"><path d="M 0.269531 0.539062 L 8.628906 0.539062 L 8.628906 8.863281 L 0.269531 8.863281 Z M 0.269531 0.539062 " clip-rule="nonzero"/></clipPath><clipPath id="f48d26f758"><path d="M 4.449219 0.539062 C 2.140625 0.539062 0.269531 2.402344 0.269531 4.699219 C 0.269531 7 2.140625 8.863281 4.449219 8.863281 C 6.753906 8.863281 8.625 7 8.625 4.699219 C 8.625 2.402344 6.753906 0.539062 4.449219 0.539062 Z M 4.449219 0.539062 " clip-rule="nonzero"/></clipPath><clipPath id="465b5a4a7b"><rect x="0" width="9" y="0" height="9"/></clipPath></defs><g transform="matrix(1, 0, 0, 1, 1, 12)"><g clip-path="url(#b93e656df9)"><g fill="#d62828" fill-opacity="1"><g transform="translate(1.573927, 35.233139)"><g><path d="M 23.359375 -18.066406 C 25.503906 -15.714844 26.578125 -12.859375 26.578125 -9.5 C 26.578125 -6.136719 25.503906 -3.285156 23.355469 -0.945312 C 21.160156 1.449219 18.386719 2.644531 15.027344 2.644531 C 11.886719 2.644531 9.292969 1.511719 7.246094 -0.753906 L 8.792969 -2.152344 L 8.792969 -0.0664062 L 8.71875 -0.0664062 L 8.71875 -2.152344 L 10.808594 -2.152344 L 10.808594 2.085938 L 0.140625 2.085938 L 0.140625 -34 L 10.882812 -34 L 10.882812 -17.21875 L 8.792969 -17.21875 L 7.339844 -18.714844 C 9.378906 -20.691406 11.941406 -21.679688 15.027344 -21.679688 C 18.386719 -21.679688 21.164062 -20.476562 23.359375 -18.066406 Z M 20.277344 -15.253906 C 18.910156 -16.753906 17.160156 -17.503906 15.027344 -17.503906 C 13.070312 -17.503906 11.476562 -16.910156 10.246094 -15.71875 L 6.707031 -12.285156 L 6.707031 -31.910156 L 8.792969 -31.910156 L 8.792969 -29.824219 L 2.226562 -29.824219 L 2.226562 -31.910156 L 4.3125 -31.910156 L 4.3125 0 L 2.226562 0 L 2.226562 -2.085938 L 8.71875 -2.085938 L 8.71875 0 L 6.632812 0 L 6.632812 -4.238281 L 9.722656 -4.238281 L 10.34375 -3.550781 C 11.5625 -2.203125 13.121094 -1.53125 15.027344 -1.53125 C 17.160156 -1.53125 18.914062 -2.277344 20.28125 -3.765625 C 21.695312 -5.308594 22.402344 -7.21875 22.402344 -9.5 C 22.402344 -11.78125 21.695312 -13.699219 20.277344 -15.253906 Z M 14.800781 -7.753906 C 15.21875 -8.175781 15.425781 -8.757812 15.425781 -9.5 C 15.425781 -10.226562 15.207031 -10.808594 14.769531 -11.242188 C 14.320312 -11.679688 13.753906 -11.902344 13.0625 -11.902344 C 12.394531 -11.902344 11.839844 -11.679688 11.390625 -11.242188 C 10.953125 -10.808594 10.734375 -10.226562 10.734375 -9.5 C 10.734375 -8.78125 10.945312 -8.207031 11.375 -7.773438 C 11.796875 -7.347656 12.355469 -7.132812 13.0625 -7.132812 C 13.816406 -7.132812 14.394531 -7.339844 14.800781 -7.753906 Z M 17.777344 -4.824219 C 16.550781 -3.582031 14.980469 -2.960938 13.0625 -2.960938 C 11.191406 -2.960938 9.640625 -3.585938 8.402344 -4.84375 C 7.171875 -6.089844 6.558594 -7.640625 6.558594 -9.5 C 6.558594 -11.390625 7.191406 -12.964844 8.460938 -14.214844 C 9.71875 -15.457031 11.253906 -16.078125 13.0625 -16.078125 C 14.894531 -16.078125 16.4375 -15.457031 17.699219 -14.214844 C 18.96875 -12.964844 19.601562 -11.390625 19.601562 -9.5 C 19.601562 -7.617188 18.992188 -6.058594 17.777344 -4.824219 Z M 17.777344 -4.824219 "/></g></g></g><g fill="#d62828" fill-opacity="1"><g transform="translate(23.611521, 35.233139)"><g><path d="M 0.140625 0 L 0.140625 -21.121094 L 10.882812 -21.121094 L 10.882812 -16.289062 L 8.792969 -16.289062 L 8.792969 -18.375 L 8.867188 -18.375 L 8.867188 -16.289062 L 7 -17.222656 C 7.105469 -17.433594 7.253906 -17.664062 7.441406 -17.914062 C 7.609375 -18.140625 7.917969 -18.476562 8.355469 -18.914062 C 8.8125 -19.371094 9.300781 -19.78125 9.816406 -20.148438 C 10.394531 -20.554688 11.109375 -20.910156 11.960938 -21.207031 C 12.851562 -21.523438 13.765625 -21.679688 14.695312 -21.679688 C 15.605469 -21.679688 16.503906 -21.554688 17.382812 -21.300781 C 18.257812 -21.050781 18.941406 -20.777344 19.425781 -20.480469 L 18.332031 -18.703125 L 19.367188 -20.515625 L 21.589844 -19.242188 L 16.792969 -9.515625 L 14.753906 -11.246094 C 14.328125 -11.609375 13.640625 -11.789062 12.691406 -11.789062 C 12.289062 -11.789062 11.96875 -11.71875 11.734375 -11.574219 C 11.519531 -11.445312 11.386719 -11.320312 11.328125 -11.199219 C 11.144531 -10.808594 11.015625 -10.496094 10.949219 -10.261719 C 10.917969 -10.15625 10.898438 -10.066406 10.886719 -9.996094 C 10.882812 -9.980469 10.878906 -9.96875 10.878906 -9.960938 C 10.878906 -9.976562 10.882812 -9.996094 10.882812 -10.019531 L 10.882812 2.085938 L 0.140625 2.085938 Z M 4.3125 0 L 2.226562 0 L 2.226562 -2.085938 L 8.792969 -2.085938 L 8.792969 0 L 6.707031 0 L 6.707031 -10.019531 C 6.707031 -10.410156 6.78125 -10.875 6.9375 -11.410156 C 7.066406 -11.867188 7.273438 -12.394531 7.558594 -12.992188 C 7.972656 -13.863281 8.640625 -14.578125 9.5625 -15.140625 C 10.464844 -15.691406 11.507812 -15.964844 12.691406 -15.964844 C 14.660156 -15.964844 16.25 -15.453125 17.453125 -14.429688 L 16.105469 -12.839844 L 14.230469 -13.761719 L 16.976562 -19.328125 L 18.851562 -18.40625 L 17.8125 -16.59375 L 17.238281 -16.921875 C 17.078125 -17.019531 16.746094 -17.144531 16.234375 -17.289062 C 15.730469 -17.433594 15.214844 -17.503906 14.695312 -17.503906 C 14.238281 -17.503906 13.789062 -17.425781 13.347656 -17.269531 C 12.859375 -17.101562 12.488281 -16.921875 12.222656 -16.738281 C 11.902344 -16.507812 11.597656 -16.25 11.308594 -15.964844 C 11.007812 -15.664062 10.832031 -15.476562 10.78125 -15.410156 C 10.75 -15.371094 10.730469 -15.339844 10.714844 -15.320312 L 10.714844 -15.316406 C 10.71875 -15.328125 10.726562 -15.339844 10.734375 -15.355469 L 10.160156 -14.203125 L 6.707031 -14.203125 L 6.707031 -19.035156 L 8.792969 -19.035156 L 8.792969 -16.949219 L 2.226562 -16.949219 L 2.226562 -19.035156 L 4.3125 -19.035156 Z M 4.3125 0 "/></g></g></g><g fill="#d62828" fill-opacity="1"><g transform="translate(38.785403, 35.233139)"><g><path d="M 1.382812 -31.125 C 2.554688 -32.296875 3.964844 -32.886719 5.601562 -32.886719 C 7.242188 -32.886719 8.648438 -32.296875 9.824219 -31.125 C 11 -29.949219 11.585938 -28.542969 11.585938 -26.902344 C 11.585938 -25.261719 11 -23.855469 9.824219 -22.679688 C 8.648438 -21.503906 7.242188 -20.917969 5.601562 -20.917969 C 3.964844 -20.917969 2.554688 -21.503906 1.382812 -22.679688 C 0.207031 -23.855469 -0.378906 -25.261719 -0.378906 -26.902344 C -0.378906 -28.542969 0.207031 -29.949219 1.382812 -31.125 Z M 4.332031 -28.171875 C 3.972656 -27.8125 3.792969 -27.390625 3.792969 -26.902344 C 3.792969 -26.414062 3.972656 -25.992188 4.332031 -25.632812 C 4.691406 -25.273438 5.117188 -25.09375 5.601562 -25.09375 C 6.089844 -25.09375 6.511719 -25.273438 6.871094 -25.632812 C 7.230469 -25.992188 7.410156 -26.414062 7.410156 -26.902344 C 7.410156 -27.390625 7.230469 -27.8125 6.871094 -28.171875 C 6.511719 -28.53125 6.089844 -28.710938 5.601562 -28.710938 C 5.117188 -28.710938 4.691406 -28.53125 4.332031 -28.171875 Z M 4.3125 -19.035156 L 4.3125 0 L 2.226562 0 L 2.226562 -2.085938 L 8.792969 -2.085938 L 8.792969 0 L 6.707031 0 L 6.707031 -19.035156 L 8.792969 -19.035156 L 8.792969 -16.949219 L 2.226562 -16.949219 L 2.226562 -19.035156 Z M 0.140625 -21.121094 L 10.882812 -21.121094 L 10.882812 2.085938 L 0.140625 2.085938 Z M 0.140625 -21.121094 "/></g></g></g><g fill="#d62828" fill-opacity="1"><g transform="translate(46.687457, 35.233139)"><g><path d="M 12.355469 -12.125 C 11.707031 -12.125 11.140625 -11.878906 10.660156 -11.382812 C 10.164062 -10.871094 9.917969 -10.257812 9.917969 -9.535156 C 9.917969 -8.789062 10.164062 -8.164062 10.660156 -7.652344 C 11.140625 -7.15625 11.707031 -6.910156 12.355469 -6.910156 C 12.757812 -6.910156 13.136719 -6.960938 13.484375 -7.058594 C 13.835938 -7.15625 14.054688 -7.230469 14.140625 -7.28125 L 15.214844 -5.492188 L 14.054688 -7.226562 L 16.375 -8.777344 L 20.425781 -0.476562 L 18.988281 0.546875 C 18.769531 0.703125 18.480469 0.890625 18.125 1.101562 C 17.660156 1.382812 16.792969 1.707031 15.519531 2.078125 C 14.230469 2.457031 12.851562 2.644531 11.390625 2.644531 C 8.050781 2.644531 5.121094 1.472656 2.605469 -0.863281 C 0.046875 -3.246094 -1.234375 -6.109375 -1.234375 -9.460938 C -1.234375 -12.832031 0.0429688 -15.722656 2.59375 -18.125 C 5.113281 -20.496094 8.042969 -21.679688 11.390625 -21.679688 C 12.84375 -21.679688 14.195312 -21.503906 15.441406 -21.15625 C 16.71875 -20.800781 17.671875 -20.414062 18.300781 -19.992188 L 18.324219 -19.976562 L 20.4375 -18.484375 L 16.320312 -10.179688 L 14.320312 -11.632812 C 13.871094 -11.960938 13.214844 -12.125 12.355469 -12.125 Z M 12.355469 -16.300781 C 14.121094 -16.300781 15.59375 -15.867188 16.773438 -15.007812 L 15.546875 -13.320312 L 13.675781 -14.25 L 15.902344 -18.738281 L 17.773438 -17.8125 L 16.570312 -16.105469 L 15.9375 -16.550781 L 17.144531 -18.257812 L 15.984375 -16.519531 C 15.722656 -16.695312 15.167969 -16.898438 14.320312 -17.136719 C 13.4375 -17.382812 12.460938 -17.503906 11.390625 -17.503906 C 9.148438 -17.503906 7.171875 -16.699219 5.457031 -15.085938 C 3.78125 -13.507812 2.941406 -11.632812 2.941406 -9.460938 C 2.941406 -7.324219 3.777344 -5.476562 5.449219 -3.921875 C 7.160156 -2.328125 9.144531 -1.53125 11.390625 -1.53125 C 12.453125 -1.53125 13.441406 -1.664062 14.351562 -1.929688 C 15.277344 -2.199219 15.820312 -2.382812 15.976562 -2.476562 C 16.238281 -2.632812 16.433594 -2.757812 16.5625 -2.847656 L 17.773438 -1.148438 L 15.898438 -0.234375 L 13.671875 -4.800781 L 15.546875 -5.714844 L 16.707031 -3.976562 L 16.328125 -3.726562 L 16.289062 -3.703125 C 15.878906 -3.457031 15.320312 -3.234375 14.605469 -3.035156 C 13.890625 -2.835938 13.140625 -2.738281 12.355469 -2.738281 C 10.53125 -2.738281 8.96875 -3.40625 7.667969 -4.742188 C 6.382812 -6.0625 5.742188 -7.660156 5.742188 -9.535156 C 5.742188 -11.386719 6.382812 -12.972656 7.667969 -14.292969 C 8.96875 -15.628906 10.53125 -16.300781 12.355469 -16.300781 Z M 12.355469 -16.300781 "/></g></g></g><g fill="#d62828" fill-opacity="1"><g transform="translate(61.601631, 35.233139)"><g><path d="M 25.449219 -17.5625 L 16.394531 -8.472656 L 14.917969 -9.945312 L 16.390625 -11.421875 L 29.898438 2.085938 L 15.535156 2.085938 L 7.316406 -6.128906 L 8.792969 -7.605469 L 10.882812 -7.605469 L 10.882812 2.085938 L 0.140625 2.085938 L 0.140625 -34 L 10.882812 -34 L 10.882812 -12.394531 L 8.792969 -12.394531 L 7.316406 -13.871094 L 14.570312 -21.121094 L 28.996094 -21.121094 Z M 22.492188 -20.507812 L 23.96875 -19.035156 L 23.96875 -16.949219 L 15.4375 -16.949219 L 15.4375 -19.035156 L 16.910156 -17.558594 L 6.707031 -7.355469 L 6.707031 -31.910156 L 8.792969 -31.910156 L 8.792969 -29.824219 L 2.226562 -29.824219 L 2.226562 -31.910156 L 4.3125 -31.910156 L 4.3125 0 L 2.226562 0 L 2.226562 -2.085938 L 8.792969 -2.085938 L 8.792969 0 L 6.707031 0 L 6.707031 -12.644531 L 17.875 -1.476562 L 16.402344 0 L 16.402344 -2.085938 L 24.859375 -2.085938 L 24.859375 0 L 23.386719 1.476562 L 11.96875 -9.941406 Z M 22.492188 -20.507812 "/></g></g></g><g fill="#d62828" fill-opacity="1"><g transform="translate(82.266483, 35.233139)"><g><path d="M 10.5 -21.679688 C 11.75 -21.679688 12.984375 -21.539062 14.203125 -21.253906 C 15.414062 -20.972656 16.347656 -20.675781 17 -20.363281 L 19.703125 -19.078125 L 15.640625 -10.953125 L 13.75 -11.960938 C 12.570312 -12.589844 11.488281 -12.902344 10.5 -12.902344 C 10.234375 -12.902344 10.023438 -12.890625 9.867188 -12.867188 C 9.824219 -12.859375 9.792969 -12.855469 9.777344 -12.851562 C 9.804688 -12.859375 9.839844 -12.875 9.886719 -12.898438 C 10.128906 -13.023438 10.308594 -13.207031 10.433594 -13.453125 C 10.511719 -13.597656 10.546875 -13.730469 10.546875 -13.839844 C 10.546875 -13.914062 10.539062 -13.984375 10.523438 -14.050781 C 10.46875 -14.269531 10.371094 -14.460938 10.230469 -14.625 C 10.269531 -14.578125 10.300781 -14.542969 10.324219 -14.519531 C 10.253906 -14.59375 10.179688 -14.652344 10.109375 -14.699219 C 10.097656 -14.703125 10.089844 -14.710938 10.082031 -14.714844 C 10.085938 -14.710938 10.089844 -14.710938 10.097656 -14.707031 C 10.210938 -14.648438 10.289062 -14.609375 10.339844 -14.589844 C 10.398438 -14.566406 10.507812 -14.523438 10.675781 -14.460938 L 11.121094 -14.292969 C 11.1875 -14.269531 11.320312 -14.222656 11.519531 -14.160156 C 11.683594 -14.109375 11.789062 -14.078125 11.839844 -14.070312 L 11.925781 -14.050781 L 12.011719 -14.027344 C 12.886719 -13.773438 13.660156 -13.484375 14.332031 -13.164062 C 15.023438 -12.832031 15.738281 -12.390625 16.480469 -11.839844 C 17.382812 -11.167969 18.082031 -10.316406 18.578125 -9.292969 C 19.0625 -8.289062 19.304688 -7.171875 19.304688 -5.9375 C 19.304688 -4.546875 19.050781 -3.308594 18.546875 -2.21875 C 18.019531 -1.078125 17.230469 -0.128906 16.183594 0.625 C 14.316406 1.972656 11.65625 2.644531 8.199219 2.644531 C 6.609375 2.644531 5.089844 2.394531 3.644531 1.898438 C 2.203125 1.40625 1.121094 0.875 0.394531 0.316406 L 0.371094 0.296875 L -1.859375 -1.527344 L 3.011719 -9.714844 L 4.898438 -8.0625 C 5.050781 -7.929688 5.261719 -7.765625 5.535156 -7.566406 C 5.757812 -7.40625 6.230469 -7.148438 6.960938 -6.792969 C 7.511719 -6.527344 7.9375 -6.390625 8.238281 -6.390625 C 8.421875 -6.390625 8.570312 -6.402344 8.671875 -6.425781 C 8.6875 -6.429688 8.695312 -6.433594 8.703125 -6.433594 L 8.699219 -6.433594 C 8.671875 -6.421875 8.640625 -6.402344 8.601562 -6.378906 C 8.46875 -6.289062 8.359375 -6.164062 8.28125 -6.003906 C 8.222656 -5.882812 8.191406 -5.773438 8.191406 -5.675781 C 8.191406 -5.542969 8.226562 -5.40625 8.304688 -5.261719 C 8.378906 -5.121094 8.472656 -5.011719 8.585938 -4.933594 C 8.386719 -5.070312 7.957031 -5.257812 7.292969 -5.492188 C 6.371094 -5.824219 5.632812 -6.132812 5.074219 -6.425781 C 3.667969 -7.160156 2.53125 -8.015625 1.667969 -8.984375 C 0.625 -10.160156 0.101562 -11.652344 0.101562 -13.46875 C 0.101562 -14.761719 0.363281 -15.929688 0.882812 -16.972656 C 1.410156 -18.035156 2.1875 -18.933594 3.214844 -19.671875 C 5.078125 -21.011719 7.503906 -21.679688 10.5 -21.679688 Z M 10.5 -17.503906 C 8.402344 -17.503906 6.785156 -17.097656 5.652344 -16.285156 C 5.183594 -15.945312 4.839844 -15.554688 4.617188 -15.113281 C 4.390625 -14.65625 4.277344 -14.105469 4.277344 -13.46875 C 4.277344 -12.710938 4.445312 -12.140625 4.789062 -11.757812 C 5.3125 -11.171875 6.054688 -10.625 7.019531 -10.121094 C 7.402344 -9.921875 7.964844 -9.6875 8.699219 -9.421875 C 9.695312 -9.066406 10.4375 -8.722656 10.929688 -8.386719 C 11.390625 -8.074219 11.746094 -7.683594 11.992188 -7.214844 C 12.242188 -6.746094 12.367188 -6.234375 12.367188 -5.675781 C 12.367188 -5.121094 12.25 -4.613281 12.019531 -4.148438 C 11.773438 -3.648438 11.410156 -3.234375 10.933594 -2.914062 C 10.242188 -2.449219 9.34375 -2.21875 8.238281 -2.21875 C 7.300781 -2.21875 6.265625 -2.492188 5.136719 -3.039062 C 4.183594 -3.5 3.496094 -3.886719 3.074219 -4.195312 C 2.703125 -4.46875 2.394531 -4.710938 2.152344 -4.921875 L 3.523438 -6.492188 L 5.320312 -5.425781 L 2.648438 -0.9375 L 0.851562 -2.003906 L 2.175781 -3.621094 L 2.992188 -2.953125 L 1.667969 -1.335938 L 2.945312 -2.988281 C 3.308594 -2.707031 3.992188 -2.394531 5 -2.046875 C 6.003906 -1.703125 7.070312 -1.53125 8.199219 -1.53125 C 10.757812 -1.53125 12.605469 -1.941406 13.742188 -2.761719 C 14.199219 -3.089844 14.539062 -3.492188 14.757812 -3.972656 C 15.007812 -4.507812 15.128906 -5.160156 15.128906 -5.9375 C 15.128906 -6.535156 15.027344 -7.046875 14.816406 -7.480469 C 14.621094 -7.890625 14.34375 -8.226562 13.984375 -8.492188 C 13.460938 -8.882812 12.976562 -9.183594 12.53125 -9.398438 C 12.066406 -9.621094 11.503906 -9.828125 10.847656 -10.019531 L 11.429688 -12.023438 L 11.019531 -9.976562 C 10.820312 -10.015625 10.570312 -10.082031 10.261719 -10.179688 C 9.992188 -10.265625 9.789062 -10.332031 9.65625 -10.382812 L 9.210938 -10.550781 C 8.984375 -10.636719 8.8125 -10.703125 8.695312 -10.753906 C 8.570312 -10.804688 8.417969 -10.878906 8.230469 -10.972656 C 7.882812 -11.148438 7.59375 -11.34375 7.375 -11.566406 C 7.273438 -11.667969 7.171875 -11.78125 7.0625 -11.90625 C 6.773438 -12.242188 6.578125 -12.621094 6.472656 -13.039062 C 6.40625 -13.300781 6.371094 -13.570312 6.371094 -13.839844 C 6.371094 -14.398438 6.488281 -14.902344 6.71875 -15.351562 C 6.996094 -15.898438 7.410156 -16.316406 7.960938 -16.601562 C 8.570312 -16.917969 9.417969 -17.078125 10.5 -17.078125 C 12.183594 -17.078125 13.921875 -16.601562 15.714844 -15.644531 L 14.730469 -13.804688 L 12.863281 -14.738281 L 15.015625 -19.042969 L 16.882812 -18.109375 L 15.984375 -16.222656 L 15.207031 -16.59375 C 14.824219 -16.777344 14.171875 -16.976562 13.257812 -17.1875 C 12.347656 -17.398438 11.429688 -17.503906 10.5 -17.503906 Z M 10.5 -17.503906 "/></g></g></g><g fill="#d62828" fill-opacity="1"><g transform="translate(97.217755, 35.233139)"><g><path d="M 23.355469 -18.089844 C 25.503906 -15.75 26.578125 -12.898438 26.578125 -9.535156 C 26.578125 -6.175781 25.503906 -3.320312 23.359375 -0.96875 C 21.164062 1.441406 18.386719 2.644531 15.027344 2.644531 C 11.941406 2.644531 9.378906 1.65625 7.339844 -0.320312 L 8.792969 -1.816406 L 10.882812 -1.816406 L 10.882812 11.734375 L 0.140625 11.734375 L 0.140625 -21.121094 L 10.808594 -21.121094 L 10.808594 -16.882812 L 8.71875 -16.882812 L 8.71875 -18.96875 L 8.792969 -18.96875 L 8.792969 -16.882812 L 7.246094 -18.28125 C 9.292969 -20.546875 11.886719 -21.679688 15.027344 -21.679688 C 18.386719 -21.679688 21.160156 -20.484375 23.355469 -18.089844 Z M 20.28125 -15.269531 C 18.914062 -16.757812 17.160156 -17.503906 15.027344 -17.503906 C 13.121094 -17.503906 11.5625 -16.832031 10.34375 -15.484375 L 9.722656 -14.796875 L 6.632812 -14.796875 L 6.632812 -19.035156 L 8.71875 -19.035156 L 8.71875 -16.949219 L 2.226562 -16.949219 L 2.226562 -19.035156 L 4.3125 -19.035156 L 4.3125 9.648438 L 2.226562 9.648438 L 2.226562 7.558594 L 8.792969 7.558594 L 8.792969 9.648438 L 6.707031 9.648438 L 6.707031 -6.75 L 10.246094 -3.316406 C 11.476562 -2.125 13.070312 -1.53125 15.027344 -1.53125 C 17.160156 -1.53125 18.910156 -2.28125 20.277344 -3.78125 C 21.695312 -5.335938 22.402344 -7.253906 22.402344 -9.535156 C 22.402344 -11.816406 21.695312 -13.726562 20.28125 -15.269531 Z M 14.769531 -7.792969 C 15.207031 -8.226562 15.425781 -8.808594 15.425781 -9.535156 C 15.425781 -10.277344 15.21875 -10.859375 14.800781 -11.28125 C 14.394531 -11.695312 13.816406 -11.902344 13.0625 -11.902344 C 12.355469 -11.902344 11.796875 -11.6875 11.375 -11.261719 C 10.945312 -10.828125 10.734375 -10.253906 10.734375 -9.535156 C 10.734375 -8.808594 10.953125 -8.226562 11.390625 -7.792969 C 11.839844 -7.355469 12.394531 -7.132812 13.0625 -7.132812 C 13.753906 -7.132812 14.320312 -7.355469 14.769531 -7.792969 Z M 17.699219 -4.820312 C 16.4375 -3.578125 14.894531 -2.960938 13.0625 -2.960938 C 11.253906 -2.960938 9.71875 -3.578125 8.460938 -4.820312 C 7.191406 -6.070312 6.558594 -7.644531 6.558594 -9.535156 C 6.558594 -11.394531 7.171875 -12.945312 8.402344 -14.191406 C 9.640625 -15.449219 11.191406 -16.078125 13.0625 -16.078125 C 14.980469 -16.078125 16.550781 -15.453125 17.777344 -14.210938 C 18.992188 -12.976562 19.601562 -11.417969 19.601562 -9.535156 C 19.601562 -7.644531 18.96875 -6.070312 17.699219 -4.820312 Z M 17.699219 -4.820312 "/></g></g></g><g fill="#d62828" fill-opacity="1"><g transform="translate(119.255343, 35.233139)"><g><path d="M 1.988281 -0.945312 C -0.160156 -3.285156 -1.234375 -6.136719 -1.234375 -9.5 C -1.234375 -12.859375 -0.160156 -15.714844 1.980469 -18.066406 C 4.175781 -20.476562 6.957031 -21.679688 10.316406 -21.679688 C 13.402344 -21.679688 15.964844 -20.691406 18.003906 -18.714844 L 16.550781 -17.21875 L 14.460938 -17.21875 L 14.460938 -21.121094 L 25.203125 -21.121094 L 25.203125 2.085938 L 14.535156 2.085938 L 14.535156 -2.152344 L 16.625 -2.152344 L 16.625 -0.0664062 L 16.550781 -0.0664062 L 16.550781 -2.152344 L 18.097656 -0.753906 C 16.050781 1.511719 13.457031 2.644531 10.316406 2.644531 C 6.957031 2.644531 4.179688 1.449219 1.988281 -0.945312 Z M 5.0625 -3.765625 C 6.429688 -2.277344 8.179688 -1.53125 10.316406 -1.53125 C 12.222656 -1.53125 13.78125 -2.203125 15 -3.550781 L 15.621094 -4.238281 L 18.710938 -4.238281 L 18.710938 0 L 16.625 0 L 16.625 -2.085938 L 23.117188 -2.085938 L 23.117188 0 L 21.03125 0 L 21.03125 -19.035156 L 23.117188 -19.035156 L 23.117188 -16.949219 L 16.550781 -16.949219 L 16.550781 -19.035156 L 18.636719 -19.035156 L 18.636719 -12.285156 L 15.097656 -15.71875 C 13.867188 -16.910156 12.273438 -17.503906 10.316406 -17.503906 C 8.183594 -17.503906 6.433594 -16.753906 5.066406 -15.253906 C 3.648438 -13.699219 2.941406 -11.78125 2.941406 -9.5 C 2.941406 -7.21875 3.648438 -5.308594 5.0625 -3.765625 Z M 10.574219 -11.242188 C 10.136719 -10.808594 9.917969 -10.226562 9.917969 -9.5 C 9.917969 -8.757812 10.125 -8.175781 10.539062 -7.753906 C 10.949219 -7.339844 11.527344 -7.132812 12.28125 -7.132812 C 12.984375 -7.132812 13.546875 -7.347656 13.96875 -7.773438 C 14.394531 -8.207031 14.609375 -8.78125 14.609375 -9.5 C 14.609375 -10.226562 14.390625 -10.808594 13.953125 -11.242188 C 13.503906 -11.679688 12.949219 -11.902344 12.28125 -11.902344 C 11.589844 -11.902344 11.023438 -11.679688 10.574219 -11.242188 Z M 7.644531 -14.214844 C 8.902344 -15.457031 10.449219 -16.078125 12.28125 -16.078125 C 14.089844 -16.078125 15.621094 -15.457031 16.882812 -14.214844 C 18.152344 -12.964844 18.785156 -11.390625 18.785156 -9.5 C 18.785156 -7.640625 18.171875 -6.089844 16.941406 -4.84375 C 15.703125 -3.585938 14.152344 -2.960938 12.28125 -2.960938 C 10.363281 -2.960938 8.792969 -3.582031 7.566406 -4.824219 C 6.351562 -6.058594 5.742188 -7.617188 5.742188 -9.5 C 5.742188 -11.390625 6.375 -12.964844 7.644531 -14.214844 Z M 7.644531 -14.214844 "/></g></g></g><g fill="#d62828" fill-opacity="1"><g transform="translate(141.292938, 35.233139)"><g><path d="M 0.140625 0 L 0.140625 -21.121094 L 10.882812 -21.121094 L 10.882812 -16.289062 L 8.792969 -16.289062 L 8.792969 -18.375 L 8.867188 -18.375 L 8.867188 -16.289062 L 7 -17.222656 C 7.105469 -17.433594 7.253906 -17.664062 7.441406 -17.914062 C 7.609375 -18.140625 7.917969 -18.476562 8.355469 -18.914062 C 8.8125 -19.371094 9.300781 -19.78125 9.816406 -20.148438 C 10.394531 -20.554688 11.109375 -20.910156 11.960938 -21.207031 C 12.851562 -21.523438 13.765625 -21.679688 14.695312 -21.679688 C 15.605469 -21.679688 16.503906 -21.554688 17.382812 -21.300781 C 18.257812 -21.050781 18.941406 -20.777344 19.425781 -20.480469 L 18.332031 -18.703125 L 19.367188 -20.515625 L 21.589844 -19.242188 L 16.792969 -9.515625 L 14.753906 -11.246094 C 14.328125 -11.609375 13.640625 -11.789062 12.691406 -11.789062 C 12.289062 -11.789062 11.96875 -11.71875 11.734375 -11.574219 C 11.519531 -11.445312 11.386719 -11.320312 11.328125 -11.199219 C 11.144531 -10.808594 11.015625 -10.496094 10.949219 -10.261719 C 10.917969 -10.15625 10.898438 -10.066406 10.886719 -9.996094 C 10.882812 -9.980469 10.878906 -9.96875 10.878906 -9.960938 C 10.878906 -9.976562 10.882812 -9.996094 10.882812 -10.019531 L 10.882812 2.085938 L 0.140625 2.085938 Z M 4.3125 0 L 2.226562 0 L 2.226562 -2.085938 L 8.792969 -2.085938 L 8.792969 0 L 6.707031 0 L 6.707031 -10.019531 C 6.707031 -10.410156 6.78125 -10.875 6.9375 -11.410156 C 7.066406 -11.867188 7.273438 -12.394531 7.558594 -12.992188 C 7.972656 -13.863281 8.640625 -14.578125 9.5625 -15.140625 C 10.464844 -15.691406 11.507812 -15.964844 12.691406 -15.964844 C 14.660156 -15.964844 16.25 -15.453125 17.453125 -14.429688 L 16.105469 -12.839844 L 14.230469 -13.761719 L 16.976562 -19.328125 L 18.851562 -18.40625 L 17.8125 -16.59375 L 17.238281 -16.921875 C 17.078125 -17.019531 16.746094 -17.144531 16.234375 -17.289062 C 15.730469 -17.433594 15.214844 -17.503906 14.695312 -17.503906 C 14.238281 -17.503906 13.789062 -17.425781 13.347656 -17.269531 C 12.859375 -17.101562 12.488281 -16.921875 12.222656 -16.738281 C 11.902344 -16.507812 11.597656 -16.25 11.308594 -15.964844 C 11.007812 -15.664062 10.832031 -15.476562 10.78125 -15.410156 C 10.75 -15.371094 10.730469 -15.339844 10.714844 -15.320312 L 10.714844 -15.316406 C 10.71875 -15.328125 10.726562 -15.339844 10.734375 -15.355469 L 10.160156 -14.203125 L 6.707031 -14.203125 L 6.707031 -19.035156 L 8.792969 -19.035156 L 8.792969 -16.949219 L 2.226562 -16.949219 L 2.226562 -19.035156 L 4.3125 -19.035156 Z M 4.3125 0 "/></g></g></g><g clip-path="url(#f0a78b9f8f)"><g fill="#d62828" fill-opacity="1"><g transform="translate(156.46682, 35.233139)"><g><path d="M 25.449219 -17.5625 L 16.394531 -8.472656 L 14.917969 -9.945312 L 16.390625 -11.421875 L 29.898438 2.085938 L 15.535156 2.085938 L 7.316406 -6.128906 L 8.792969 -7.605469 L 10.882812 -7.605469 L 10.882812 2.085938 L 0.140625 2.085938 L 0.140625 -34 L 10.882812 -34 L 10.882812 -12.394531 L 8.792969 -12.394531 L 7.316406 -13.871094 L 14.570312 -21.121094 L 28.996094 -21.121094 Z M 22.492188 -20.507812 L 23.96875 -19.035156 L 23.96875 -16.949219 L 15.4375 -16.949219 L 15.4375 -19.035156 L 16.910156 -17.558594 L 6.707031 -7.355469 L 6.707031 -31.910156 L 8.792969 -31.910156 L 8.792969 -29.824219 L 2.226562 -29.824219 L 2.226562 -31.910156 L 4.3125 -31.910156 L 4.3125 0 L 2.226562 0 L 2.226562 -2.085938 L 8.792969 -2.085938 L 8.792969 0 L 6.707031 0 L 6.707031 -12.644531 L 17.875 -1.476562 L 16.402344 0 L 16.402344 -2.085938 L 24.859375 -2.085938 L 24.859375 0 L 23.386719 1.476562 L 11.96875 -9.941406 Z M 22.492188 -20.507812 "/></g></g></g></g><g fill="#023047" fill-opacity="1"><g transform="translate(1.573927, 35.233139)"><g><path d="M 21.828125 -16.65625 C 23.609375 -14.707031 24.5 -12.320312 24.5 -9.5 C 24.5 -6.675781 23.609375 -4.289062 21.828125 -2.34375 C 20.046875 -0.40625 17.78125 0.5625 15.03125 0.5625 C 12.507812 0.5625 10.429688 -0.34375 8.796875 -2.15625 L 8.71875 -2.15625 L 8.71875 0 L 2.234375 0 L 2.234375 -31.921875 L 8.796875 -31.921875 L 8.796875 -17.21875 C 10.429688 -18.800781 12.507812 -19.59375 15.03125 -19.59375 C 17.78125 -19.59375 20.046875 -18.613281 21.828125 -16.65625 Z M 16.28125 -6.28125 C 17.101562 -7.113281 17.515625 -8.1875 17.515625 -9.5 C 17.515625 -10.8125 17.085938 -11.882812 16.234375 -12.71875 C 15.378906 -13.5625 14.320312 -13.984375 13.0625 -13.984375 C 11.820312 -13.984375 10.773438 -13.5625 9.921875 -12.71875 C 9.066406 -11.882812 8.640625 -10.8125 8.640625 -9.5 C 8.640625 -8.21875 9.054688 -7.15625 9.890625 -6.3125 C 10.722656 -5.46875 11.78125 -5.046875 13.0625 -5.046875 C 14.394531 -5.046875 15.46875 -5.457031 16.28125 -6.28125 Z M 16.28125 -6.28125 "/></g></g></g><g fill="#023047" fill-opacity="1"><g transform="translate(23.611521, 35.233139)"><g><path d="M 2.234375 0 L 2.234375 -19.03125 L 8.796875 -19.03125 L 8.796875 -16.296875 L 8.875 -16.296875 C 8.914062 -16.390625 8.992188 -16.507812 9.109375 -16.65625 C 9.222656 -16.8125 9.460938 -17.070312 9.828125 -17.4375 C 10.203125 -17.8125 10.597656 -18.144531 11.015625 -18.4375 C 11.441406 -18.738281 11.988281 -19.003906 12.65625 -19.234375 C 13.320312 -19.472656 14.003906 -19.59375 14.703125 -19.59375 C 15.410156 -19.59375 16.109375 -19.492188 16.796875 -19.296875 C 17.492188 -19.097656 18.003906 -18.898438 18.328125 -18.703125 L 18.859375 -18.40625 L 16.109375 -12.84375 C 15.285156 -13.53125 14.144531 -13.875 12.6875 -13.875 C 11.894531 -13.875 11.210938 -13.703125 10.640625 -13.359375 C 10.078125 -13.015625 9.675781 -12.59375 9.4375 -12.09375 C 9.207031 -11.601562 9.039062 -11.179688 8.9375 -10.828125 C 8.84375 -10.484375 8.796875 -10.210938 8.796875 -10.015625 L 8.796875 0 Z M 2.234375 0 "/></g></g></g><g fill="#023047" fill-opacity="1"><g transform="translate(38.785403, 35.233139)"><g><path d="M 2.859375 -29.640625 C 3.628906 -30.410156 4.546875 -30.796875 5.609375 -30.796875 C 6.671875 -30.796875 7.582031 -30.410156 8.34375 -29.640625 C 9.113281 -28.878906 9.5 -27.96875 9.5 -26.90625 C 9.5 -25.84375 9.113281 -24.925781 8.34375 -24.15625 C 7.582031 -23.394531 6.671875 -23.015625 5.609375 -23.015625 C 4.546875 -23.015625 3.628906 -23.394531 2.859375 -24.15625 C 2.085938 -24.925781 1.703125 -25.84375 1.703125 -26.90625 C 1.703125 -27.96875 2.085938 -28.878906 2.859375 -29.640625 Z M 2.234375 -19.03125 L 2.234375 0 L 8.796875 0 L 8.796875 -19.03125 Z M 2.234375 -19.03125 "/></g></g></g><g fill="#023047" fill-opacity="1"><g transform="translate(46.687457, 35.233139)"><g><path d="M 12.359375 -14.21875 C 11.117188 -14.21875 10.050781 -13.757812 9.15625 -12.84375 C 8.269531 -11.925781 7.828125 -10.820312 7.828125 -9.53125 C 7.828125 -8.226562 8.269531 -7.117188 9.15625 -6.203125 C 10.050781 -5.285156 11.117188 -4.828125 12.359375 -4.828125 C 12.953125 -4.828125 13.515625 -4.898438 14.046875 -5.046875 C 14.578125 -5.191406 14.96875 -5.34375 15.21875 -5.5 L 15.546875 -5.71875 L 17.78125 -1.15625 C 17.601562 -1.03125 17.359375 -0.875 17.046875 -0.6875 C 16.742188 -0.5 16.039062 -0.242188 14.9375 0.078125 C 13.832031 0.398438 12.648438 0.5625 11.390625 0.5625 C 8.597656 0.5625 6.144531 -0.421875 4.03125 -2.390625 C 1.914062 -4.359375 0.859375 -6.71875 0.859375 -9.46875 C 0.859375 -12.238281 1.914062 -14.617188 4.03125 -16.609375 C 6.144531 -18.597656 8.597656 -19.59375 11.390625 -19.59375 C 12.648438 -19.59375 13.8125 -19.441406 14.875 -19.140625 C 15.945312 -18.847656 16.703125 -18.554688 17.140625 -18.265625 L 17.78125 -17.8125 L 15.546875 -13.328125 C 14.734375 -13.921875 13.671875 -14.21875 12.359375 -14.21875 Z M 12.359375 -14.21875 "/></g></g></g><g fill="#023047" fill-opacity="1"><g transform="translate(61.601631, 35.233139)"><g><path d="M 23.96875 -19.03125 L 14.921875 -9.953125 L 24.859375 0 L 16.40625 0 L 8.796875 -7.609375 L 8.796875 0 L 2.234375 0 L 2.234375 -31.921875 L 8.796875 -31.921875 L 8.796875 -12.390625 L 15.4375 -19.03125 Z M 23.96875 -19.03125 "/></g></g></g><g fill="#023047" fill-opacity="1"><g transform="translate(82.266483, 35.233139)"><g><path d="M 10.5 -19.59375 C 11.59375 -19.59375 12.671875 -19.46875 13.734375 -19.21875 C 14.796875 -18.976562 15.585938 -18.734375 16.109375 -18.484375 L 16.890625 -18.109375 L 14.734375 -13.8125 C 13.242188 -14.601562 11.832031 -15 10.5 -15 C 9.757812 -15 9.234375 -14.914062 8.921875 -14.75 C 8.617188 -14.59375 8.46875 -14.289062 8.46875 -13.84375 C 8.46875 -13.738281 8.476562 -13.632812 8.5 -13.53125 C 8.519531 -13.4375 8.566406 -13.347656 8.640625 -13.265625 C 8.722656 -13.179688 8.789062 -13.109375 8.84375 -13.046875 C 8.90625 -12.984375 9.007812 -12.914062 9.15625 -12.84375 C 9.3125 -12.769531 9.429688 -12.710938 9.515625 -12.671875 C 9.609375 -12.640625 9.753906 -12.582031 9.953125 -12.5 C 10.148438 -12.425781 10.296875 -12.367188 10.390625 -12.328125 C 10.492188 -12.296875 10.660156 -12.242188 10.890625 -12.171875 C 11.128906 -12.097656 11.3125 -12.050781 11.4375 -12.03125 C 12.195312 -11.800781 12.859375 -11.550781 13.421875 -11.28125 C 13.992188 -11.007812 14.597656 -10.640625 15.234375 -10.171875 C 15.867188 -9.703125 16.359375 -9.109375 16.703125 -8.390625 C 17.046875 -7.671875 17.21875 -6.851562 17.21875 -5.9375 C 17.21875 -1.601562 14.210938 0.5625 8.203125 0.5625 C 6.835938 0.5625 5.539062 0.351562 4.3125 -0.0625 C 3.09375 -0.488281 2.210938 -0.914062 1.671875 -1.34375 L 0.859375 -2 L 3.53125 -6.5 C 3.726562 -6.320312 3.984375 -6.113281 4.296875 -5.875 C 4.617188 -5.644531 5.203125 -5.328125 6.046875 -4.921875 C 6.890625 -4.515625 7.617188 -4.3125 8.234375 -4.3125 C 9.597656 -4.3125 10.28125 -4.765625 10.28125 -5.671875 C 10.28125 -6.097656 10.101562 -6.425781 9.75 -6.65625 C 9.40625 -6.894531 8.816406 -7.160156 7.984375 -7.453125 C 7.160156 -7.753906 6.515625 -8.03125 6.046875 -8.28125 C 4.859375 -8.894531 3.914062 -9.59375 3.21875 -10.375 C 2.53125 -11.15625 2.1875 -12.1875 2.1875 -13.46875 C 2.1875 -15.394531 2.9375 -16.894531 4.4375 -17.96875 C 5.9375 -19.050781 7.957031 -19.59375 10.5 -19.59375 Z M 10.5 -19.59375 "/></g></g></g><g fill="#023047" fill-opacity="1"><g transform="translate(97.217755, 35.233139)"><g><path d="M 21.828125 -16.671875 C 23.609375 -14.734375 24.5 -12.351562 24.5 -9.53125 C 24.5 -6.71875 23.609375 -4.332031 21.828125 -2.375 C 20.046875 -0.414062 17.78125 0.5625 15.03125 0.5625 C 12.507812 0.5625 10.429688 -0.226562 8.796875 -1.8125 L 8.796875 9.65625 L 2.234375 9.65625 L 2.234375 -19.03125 L 8.71875 -19.03125 L 8.71875 -16.890625 L 8.796875 -16.890625 C 10.429688 -18.691406 12.507812 -19.59375 15.03125 -19.59375 C 17.78125 -19.59375 20.046875 -18.617188 21.828125 -16.671875 Z M 16.234375 -6.3125 C 17.085938 -7.15625 17.515625 -8.226562 17.515625 -9.53125 C 17.515625 -10.84375 17.101562 -11.910156 16.28125 -12.734375 C 15.46875 -13.566406 14.394531 -13.984375 13.0625 -13.984375 C 11.78125 -13.984375 10.722656 -13.5625 9.890625 -12.71875 C 9.054688 -11.882812 8.640625 -10.820312 8.640625 -9.53125 C 8.640625 -8.226562 9.066406 -7.15625 9.921875 -6.3125 C 10.773438 -5.46875 11.820312 -5.046875 13.0625 -5.046875 C 14.320312 -5.046875 15.378906 -5.46875 16.234375 -6.3125 Z M 16.234375 -6.3125 "/></g></g></g><g fill="#023047" fill-opacity="1"><g transform="translate(119.255343, 35.233139)"><g><path d="M 3.53125 -2.34375 C 1.75 -4.289062 0.859375 -6.675781 0.859375 -9.5 C 0.859375 -12.320312 1.75 -14.707031 3.53125 -16.65625 C 5.3125 -18.613281 7.570312 -19.59375 10.3125 -19.59375 C 12.84375 -19.59375 14.921875 -18.800781 16.546875 -17.21875 L 16.546875 -19.03125 L 23.125 -19.03125 L 23.125 0 L 16.625 0 L 16.625 -2.15625 L 16.546875 -2.15625 C 14.921875 -0.34375 12.84375 0.5625 10.3125 0.5625 C 7.570312 0.5625 5.3125 -0.40625 3.53125 -2.34375 Z M 9.109375 -12.71875 C 8.253906 -11.882812 7.828125 -10.8125 7.828125 -9.5 C 7.828125 -8.1875 8.234375 -7.113281 9.046875 -6.28125 C 9.867188 -5.457031 10.945312 -5.046875 12.28125 -5.046875 C 13.570312 -5.046875 14.628906 -5.46875 15.453125 -6.3125 C 16.285156 -7.15625 16.703125 -8.21875 16.703125 -9.5 C 16.703125 -10.8125 16.273438 -11.882812 15.421875 -12.71875 C 14.566406 -13.5625 13.519531 -13.984375 12.28125 -13.984375 C 11.019531 -13.984375 9.960938 -13.5625 9.109375 -12.71875 Z M 9.109375 -12.71875 "/></g></g></g><g fill="#023047" fill-opacity="1"><g transform="translate(141.292938, 35.233139)"><g><path d="M 2.234375 0 L 2.234375 -19.03125 L 8.796875 -19.03125 L 8.796875 -16.296875 L 8.875 -16.296875 C 8.914062 -16.390625 8.992188 -16.507812 9.109375 -16.65625 C 9.222656 -16.8125 9.460938 -17.070312 9.828125 -17.4375 C 10.203125 -17.8125 10.597656 -18.144531 11.015625 -18.4375 C 11.441406 -18.738281 11.988281 -19.003906 12.65625 -19.234375 C 13.320312 -19.472656 14.003906 -19.59375 14.703125 -19.59375 C 15.410156 -19.59375 16.109375 -19.492188 16.796875 -19.296875 C 17.492188 -19.097656 18.003906 -18.898438 18.328125 -18.703125 L 18.859375 -18.40625 L 16.109375 -12.84375 C 15.285156 -13.53125 14.144531 -13.875 12.6875 -13.875 C 11.894531 -13.875 11.210938 -13.703125 10.640625 -13.359375 C 10.078125 -13.015625 9.675781 -12.59375 9.4375 -12.09375 C 9.207031 -11.601562 9.039062 -11.179688 8.9375 -10.828125 C 8.84375 -10.484375 8.796875 -10.210938 8.796875 -10.015625 L 8.796875 0 Z M 2.234375 0 "/></g></g></g><g fill="#023047" fill-opacity="1"><g transform="translate(156.46682, 35.233139)"><g><path d="M 23.96875 -19.03125 L 14.921875 -9.953125 L 24.859375 0 L 16.40625 0 L 8.796875 -7.609375 L 8.796875 0 L 2.234375 0 L 2.234375 -31.921875 L 8.796875 -31.921875 L 8.796875 -12.390625 L 15.4375 -19.03125 Z M 23.96875 -19.03125 "/></g></g></g></g></g><g clip-path="url(#85a80ef619)"><g transform="matrix(1, 0, 0, 1, 124, 32)"><g clip-path="url(#fc94582e25)"><g clip-path="url(#f4bd1afba2)"><path fill="#023047" d="M 0.949219 0.535156 L 12.644531 0.535156 L 12.644531 10.652344 L 0.949219 10.652344 Z M 0.949219 0.535156 " fill-opacity="1" fill-rule="nonzero"/></g></g></g></g><g clip-path="url(#3fbc4c0920)"><path fill="#8ecae6" d="M 130.945312 31.804688 L 130.945312 35.085938 L 134.636719 33.566406 L 131.699219 37.671875 L 134.636719 40.074219 L 131.40625 40.074219 L 133.167969 44.71875 L 128.609375 40.992188 L 123.191406 44.71875 L 125.921875 39.640625 L 121.722656 38.851562 L 125.675781 37.226562 L 121.722656 31.804688 L 126.847656 34.808594 L 126.769531 31.804688 L 128.886719 34.539062 L 130.945312 31.804688 " fill-opacity="1" fill-rule="nonzero"/><path fill="#ffb703" d="M 130.945312 31.804688 L 128.886719 34.539062 L 126.769531 31.804688 L 126.847656 34.808594 L 121.722656 31.804688 L 125.675781 37.226562 L 121.722656 38.851562 L 125.921875 39.640625 L 123.191406 44.71875 L 128.609375 40.992188 L 133.167969 44.71875 L 131.40625 40.074219 L 134.636719 40.074219 L 131.699219 37.671875 L 134.636719 33.566406 L 130.945312 35.085938 Z M 129.582031 35.886719 L 129.582031 37.125 L 130.753906 36.640625 L 130.585938 36.878906 L 129.839844 37.921875 L 130.804688 38.707031 L 129.429688 38.707031 L 130.082031 40.429688 L 129.472656 39.933594 L 128.679688 39.285156 L 127.835938 39.867188 L 127.066406 40.394531 L 127.125 40.289062 L 128.007812 38.644531 L 126.503906 38.363281 L 127.804688 37.828125 L 126.777344 36.421875 L 126.691406 36.300781 L 128.28125 37.230469 L 128.246094 35.945312 L 128.902344 36.789062 L 129.582031 35.886719 " fill-opacity="1" fill-rule="nonzero"/><path fill="#d62828" d="M 130.945312 31.804688 L 128.886719 34.539062 L 126.769531 31.804688 L 126.847656 34.808594 L 121.722656 31.804688 L 125.675781 37.226562 L 121.722656 38.851562 L 125.921875 39.640625 L 123.191406 44.71875 L 128.609375 40.992188 L 133.167969 44.71875 L 131.40625 40.074219 L 134.636719 40.074219 L 131.699219 37.671875 L 134.636719 33.566406 L 130.945312 35.085938 Z M 130.261719 33.847656 L 130.261719 36.105469 L 131.207031 35.71875 L 132.695312 35.105469 L 131.140625 37.273438 L 130.769531 37.796875 L 131.265625 38.203125 L 132.71875 39.390625 L 130.417969 39.390625 L 130.769531 40.316406 L 131.625 42.574219 L 129.042969 40.464844 L 128.644531 40.140625 L 128.222656 40.429688 L 125.128906 42.558594 L 126.523438 39.964844 L 126.964844 39.144531 L 126.046875 38.96875 L 124.113281 38.605469 L 125.933594 37.855469 L 126.738281 37.527344 L 126.226562 36.824219 L 124.207031 34.054688 L 126.503906 35.398438 L 127.5625 36.019531 L 127.53125 34.792969 L 127.507812 33.875 L 128.347656 34.957031 L 128.894531 35.664062 L 129.429688 34.949219 L 130.261719 33.847656 " fill-opacity="1" fill-rule="nonzero"/></g><g clip-path="url(#dba4ebba62)"><path fill="#023047" d="M 130.945312 31.191406 C 130.757812 31.191406 130.574219 31.277344 130.457031 31.4375 L 128.878906 33.527344 L 127.257812 31.429688 C 127.136719 31.277344 126.957031 31.191406 126.769531 31.191406 C 126.699219 31.191406 126.628906 31.203125 126.5625 31.226562 C 126.3125 31.316406 126.148438 31.558594 126.15625 31.824219 L 126.203125 33.71875 L 122.035156 31.277344 C 121.9375 31.21875 121.828125 31.191406 121.722656 31.191406 C 121.554688 31.191406 121.386719 31.261719 121.265625 31.394531 C 121.070312 31.609375 121.054688 31.933594 121.226562 32.167969 L 124.714844 36.953125 L 121.488281 38.28125 C 121.238281 38.382812 121.082031 38.640625 121.113281 38.910156 C 121.140625 39.183594 121.339844 39.402344 121.609375 39.453125 L 124.980469 40.089844 L 122.648438 44.429688 C 122.515625 44.679688 122.570312 44.988281 122.78125 45.175781 C 122.894531 45.28125 123.042969 45.332031 123.191406 45.332031 C 123.3125 45.332031 123.433594 45.296875 123.539062 45.226562 L 128.578125 41.761719 L 132.78125 45.195312 C 132.890625 45.289062 133.03125 45.332031 133.167969 45.332031 C 133.292969 45.332031 133.421875 45.296875 133.527344 45.21875 C 133.753906 45.054688 133.84375 44.761719 133.742188 44.5 L 132.296875 40.6875 L 134.636719 40.6875 C 134.894531 40.6875 135.128906 40.523438 135.214844 40.28125 C 135.300781 40.035156 135.226562 39.761719 135.023438 39.597656 L 132.535156 37.5625 L 135.128906 33.933594 C 135.207031 33.832031 135.25 33.707031 135.25 33.566406 C 135.25 33.238281 134.992188 32.96875 134.664062 32.953125 C 134.65625 32.953125 134.644531 32.953125 134.636719 32.953125 C 134.613281 32.953125 134.589844 32.953125 134.570312 32.957031 C 134.503906 32.960938 134.445312 32.980469 134.390625 33.003906 L 131.5625 34.167969 L 131.5625 31.804688 C 131.5625 31.542969 131.390625 31.308594 131.140625 31.222656 C 131.078125 31.203125 131.011719 31.191406 130.945312 31.191406 Z M 134.636719 33.566406 L 134.636719 33.566406 M 130.945312 31.804688 L 130.945312 35.085938 L 134.636719 33.566406 L 131.699219 37.671875 L 134.636719 40.074219 L 131.40625 40.074219 L 133.167969 44.71875 L 128.609375 40.992188 L 123.191406 44.71875 L 125.921875 39.640625 L 121.722656 38.851562 L 125.675781 37.226562 L 121.722656 31.804688 L 126.847656 34.808594 L 126.769531 31.804688 L 128.886719 34.539062 L 130.945312 31.804688 " fill-opacity="1" fill-rule="nonzero"/></g><g transform="matrix(1, 0, 0, 1, 2, 13)"><g clip-path="url(#a664502c5c)"><g fill="#ffb703" fill-opacity="1"><g transform="translate(0.585159, 34.756717)"><g><path d="M 22.675781 -17.441406 C 24.65625 -15.265625 25.648438 -12.617188 25.648438 -9.5 C 25.648438 -6.378906 24.65625 -3.734375 22.671875 -1.574219 C 20.660156 0.621094 18.113281 1.714844 15.027344 1.714844 C 12.160156 1.714844 9.796875 0.6875 7.933594 -1.375 L 8.792969 -2.152344 L 8.792969 -0.992188 L 8.71875 -0.992188 L 8.71875 -2.152344 L 9.878906 -2.152344 L 9.878906 1.160156 L 1.066406 1.160156 L 1.066406 -33.070312 L 9.953125 -33.070312 L 9.953125 -17.214844 L 8.792969 -17.214844 L 7.988281 -18.046875 C 9.84375 -19.851562 12.191406 -20.75 15.027344 -20.75 C 18.113281 -20.75 20.664062 -19.648438 22.675781 -17.441406 Z M 20.960938 -15.878906 C 19.410156 -17.582031 17.429688 -18.429688 15.027344 -18.429688 C 12.816406 -18.429688 11.007812 -17.75 9.601562 -16.382812 L 7.632812 -14.476562 L 7.632812 -31.910156 L 8.792969 -31.910156 L 8.792969 -30.75 L 2.226562 -30.75 L 2.226562 -31.910156 L 3.386719 -31.910156 L 3.386719 0 L 2.226562 0 L 2.226562 -1.160156 L 8.71875 -1.160156 L 8.71875 0 L 7.558594 0 L 7.558594 -3.3125 L 9.308594 -3.3125 L 9.652344 -2.929688 C 11.054688 -1.378906 12.847656 -0.601562 15.027344 -0.601562 C 17.433594 -0.601562 19.410156 -1.449219 20.960938 -3.140625 C 22.539062 -4.859375 23.328125 -6.980469 23.328125 -9.5 C 23.328125 -12.019531 22.539062 -14.144531 20.960938 -15.878906 Z M 15.460938 -7.101562 C 16.054688 -7.707031 16.351562 -8.503906 16.351562 -9.5 C 16.351562 -10.484375 16.042969 -11.285156 15.417969 -11.902344 C 14.792969 -12.519531 14.003906 -12.828125 13.0625 -12.828125 C 12.140625 -12.828125 11.367188 -12.519531 10.738281 -11.902344 C 10.117188 -11.285156 9.804688 -10.484375 9.804688 -9.5 C 9.804688 -8.527344 10.109375 -7.738281 10.714844 -7.121094 C 11.316406 -6.511719 12.097656 -6.207031 13.0625 -6.207031 C 14.074219 -6.207031 14.875 -6.503906 15.460938 -7.101562 Z M 17.113281 -5.476562 C 16.070312 -4.417969 14.71875 -3.886719 13.0625 -3.886719 C 11.449219 -3.886719 10.117188 -4.421875 9.0625 -5.492188 C 8.011719 -6.5625 7.484375 -7.894531 7.484375 -9.5 C 7.484375 -11.132812 8.027344 -12.484375 9.113281 -13.550781 C 10.191406 -14.617188 11.507812 -15.148438 13.0625 -15.148438 C 14.640625 -15.148438 15.96875 -14.617188 17.046875 -13.550781 C 18.128906 -12.484375 18.671875 -11.132812 18.671875 -9.5 C 18.671875 -7.871094 18.152344 -6.53125 17.113281 -5.476562 Z M 17.113281 -5.476562 "/></g></g></g><g fill="#ffb703" fill-opacity="1"><g transform="translate(22.618607, 34.756717)"><g><path d="M 1.066406 0 L 1.066406 -20.195312 L 9.953125 -20.195312 L 9.953125 -16.289062 L 8.792969 -16.289062 L 8.792969 -17.449219 L 8.867188 -17.449219 L 8.867188 -16.289062 L 7.832031 -16.808594 C 7.910156 -16.96875 8.027344 -17.152344 8.179688 -17.355469 C 8.324219 -17.546875 8.601562 -17.847656 9.011719 -18.257812 C 9.429688 -18.675781 9.875 -19.054688 10.351562 -19.386719 C 10.859375 -19.746094 11.5 -20.0625 12.265625 -20.332031 C 13.058594 -20.609375 13.867188 -20.75 14.691406 -20.75 C 15.519531 -20.75 16.328125 -20.636719 17.125 -20.410156 C 17.921875 -20.183594 18.523438 -19.941406 18.9375 -19.6875 L 18.328125 -18.699219 L 18.90625 -19.707031 L 20.371094 -18.867188 L 16.484375 -10.992188 L 15.351562 -11.953125 C 14.753906 -12.460938 13.863281 -12.71875 12.691406 -12.71875 C 12.113281 -12.71875 11.636719 -12.601562 11.25 -12.367188 C 10.878906 -12.140625 10.625 -11.882812 10.492188 -11.597656 C 10.28125 -11.160156 10.136719 -10.800781 10.058594 -10.515625 C 9.988281 -10.273438 9.953125 -10.109375 9.953125 -10.019531 L 9.953125 1.160156 L 1.066406 1.160156 Z M 3.386719 0 L 2.226562 0 L 2.226562 -1.160156 L 8.792969 -1.160156 L 8.792969 0 L 7.632812 0 L 7.632812 -10.019531 C 7.632812 -10.324219 7.699219 -10.703125 7.828125 -11.152344 C 7.945312 -11.5625 8.132812 -12.039062 8.394531 -12.59375 C 8.730469 -13.296875 9.28125 -13.882812 10.046875 -14.347656 C 10.800781 -14.808594 11.679688 -15.035156 12.691406 -15.035156 C 14.433594 -15.035156 15.820312 -14.597656 16.851562 -13.722656 L 16.101562 -12.839844 L 15.0625 -13.351562 L 17.808594 -18.917969 L 18.847656 -18.402344 L 18.273438 -17.398438 L 17.738281 -17.703125 L 17.722656 -17.710938 C 17.492188 -17.855469 17.078125 -18.011719 16.488281 -18.179688 C 15.902344 -18.347656 15.300781 -18.429688 14.691406 -18.429688 C 14.132812 -18.429688 13.582031 -18.335938 13.039062 -18.144531 C 12.472656 -17.945312 12.019531 -17.726562 11.6875 -17.492188 C 11.320312 -17.234375 10.976562 -16.941406 10.652344 -16.617188 C 10.320312 -16.285156 10.113281 -16.070312 10.035156 -15.964844 C 9.96875 -15.871094 9.921875 -15.808594 9.90625 -15.769531 L 9.585938 -15.128906 L 7.632812 -15.128906 L 7.632812 -19.035156 L 8.792969 -19.035156 L 8.792969 -17.875 L 2.226562 -17.875 L 2.226562 -19.035156 L 3.386719 -19.035156 Z M 3.386719 0 "/></g></g></g><g fill="#ffb703" fill-opacity="1"><g transform="translate(37.789461, 34.756717)"><g><path d="M 2.035156 -30.464844 C 3.03125 -31.460938 4.21875 -31.957031 5.601562 -31.957031 C 6.988281 -31.957031 8.175781 -31.460938 9.167969 -30.464844 C 10.160156 -29.472656 10.65625 -28.285156 10.65625 -26.898438 C 10.65625 -25.515625 10.160156 -24.328125 9.167969 -23.335938 C 8.175781 -22.339844 6.988281 -21.84375 5.601562 -21.84375 C 4.21875 -21.84375 3.03125 -22.339844 2.035156 -23.335938 C 1.042969 -24.328125 0.546875 -25.515625 0.546875 -26.898438 C 0.546875 -28.285156 1.042969 -29.472656 2.035156 -30.464844 Z M 3.675781 -28.824219 C 3.136719 -28.285156 2.867188 -27.644531 2.867188 -26.898438 C 2.867188 -26.15625 3.136719 -25.515625 3.675781 -24.976562 C 4.21875 -24.433594 4.859375 -24.164062 5.601562 -24.164062 C 6.347656 -24.164062 6.988281 -24.433594 7.527344 -24.976562 C 8.070312 -25.515625 8.339844 -26.15625 8.339844 -26.898438 C 8.339844 -27.644531 8.070312 -28.285156 7.527344 -28.824219 C 6.988281 -29.367188 6.347656 -29.636719 5.601562 -29.636719 C 4.859375 -29.636719 4.21875 -29.367188 3.675781 -28.824219 Z M 3.386719 -19.035156 L 3.386719 0 L 2.226562 0 L 2.226562 -1.160156 L 8.792969 -1.160156 L 8.792969 0 L 7.632812 0 L 7.632812 -19.035156 L 8.792969 -19.035156 L 8.792969 -17.875 L 2.226562 -17.875 L 2.226562 -19.035156 Z M 1.066406 -20.195312 L 9.953125 -20.195312 L 9.953125 1.160156 L 1.066406 1.160156 Z M 1.066406 -20.195312 "/></g></g></g><g fill="#ffb703" fill-opacity="1"><g transform="translate(45.689686, 34.756717)"><g><path d="M 12.355469 -13.050781 C 11.445312 -13.050781 10.660156 -12.710938 9.996094 -12.03125 C 9.324219 -11.339844 8.988281 -10.507812 8.988281 -9.535156 C 8.988281 -8.539062 9.324219 -7.695312 9.996094 -7.003906 C 10.660156 -6.324219 11.445312 -5.984375 12.355469 -5.984375 C 12.84375 -5.984375 13.300781 -6.042969 13.730469 -6.164062 C 14.164062 -6.285156 14.457031 -6.390625 14.617188 -6.484375 L 15.210938 -5.492188 L 14.570312 -6.457031 L 16.007812 -7.414062 L 19.246094 -0.777344 L 18.445312 -0.207031 C 18.25 -0.0664062 17.980469 0.105469 17.644531 0.308594 C 17.25 0.542969 16.457031 0.835938 15.257812 1.1875 C 14.050781 1.539062 12.761719 1.714844 11.390625 1.714844 C 8.292969 1.714844 5.574219 0.628906 3.234375 -1.542969 C 0.875 -3.738281 -0.304688 -6.378906 -0.304688 -9.460938 C -0.304688 -12.566406 0.871094 -15.226562 3.230469 -17.449219 C 5.570312 -19.648438 8.289062 -20.75 11.390625 -20.75 C 12.757812 -20.75 14.023438 -20.585938 15.191406 -20.261719 C 16.371094 -19.933594 17.238281 -19.585938 17.785156 -19.21875 L 17.796875 -19.210938 L 19.253906 -18.183594 L 15.976562 -11.574219 L 14.863281 -12.382812 C 14.25 -12.828125 13.414062 -13.050781 12.355469 -13.050781 Z M 12.355469 -15.371094 C 13.917969 -15.371094 15.210938 -15 16.230469 -14.257812 L 15.546875 -13.320312 L 14.507812 -13.835938 L 16.734375 -18.324219 L 17.773438 -17.808594 L 17.105469 -16.863281 L 16.472656 -17.308594 L 17.140625 -18.253906 L 16.5 -17.289062 C 16.15625 -17.519531 15.511719 -17.765625 14.566406 -18.027344 C 13.605469 -18.296875 12.546875 -18.429688 11.390625 -18.429688 C 8.902344 -18.429688 6.710938 -17.539062 4.820312 -15.757812 C 2.949219 -13.996094 2.011719 -11.898438 2.011719 -9.460938 C 2.011719 -7.050781 2.945312 -4.980469 4.816406 -3.242188 C 6.707031 -1.484375 8.898438 -0.601562 11.390625 -0.601562 C 12.542969 -0.601562 13.613281 -0.75 14.609375 -1.039062 C 15.613281 -1.332031 16.230469 -1.546875 16.453125 -1.679688 C 16.734375 -1.851562 16.949219 -1.988281 17.097656 -2.09375 L 17.773438 -1.148438 L 16.730469 -0.640625 L 14.503906 -5.207031 L 15.546875 -5.714844 L 16.191406 -4.75 L 15.832031 -4.511719 L 15.808594 -4.496094 C 15.472656 -4.296875 14.988281 -4.105469 14.355469 -3.929688 C 13.722656 -3.753906 13.054688 -3.664062 12.355469 -3.664062 C 10.792969 -3.664062 9.453125 -4.238281 8.332031 -5.386719 C 7.222656 -6.527344 6.667969 -7.910156 6.667969 -9.535156 C 6.667969 -11.136719 7.222656 -12.507812 8.332031 -13.648438 C 9.453125 -14.796875 10.792969 -15.371094 12.355469 -15.371094 Z M 12.355469 -15.371094 "/></g></g></g><g fill="#ffb703" fill-opacity="1"><g transform="translate(60.600878, 34.756717)"><g><path d="M 24.789062 -18.214844 L 15.738281 -9.125 L 14.914062 -9.945312 L 15.734375 -10.765625 L 27.660156 1.160156 L 15.917969 1.160156 L 7.972656 -6.785156 L 8.792969 -7.605469 L 9.953125 -7.605469 L 9.953125 1.160156 L 1.066406 1.160156 L 1.066406 -33.070312 L 9.953125 -33.070312 L 9.953125 -12.394531 L 8.792969 -12.394531 L 7.972656 -13.210938 L 14.953125 -20.195312 L 26.761719 -20.195312 Z M 23.148438 -19.851562 L 23.96875 -19.035156 L 23.96875 -17.875 L 15.433594 -17.875 L 15.433594 -19.035156 L 16.253906 -18.214844 L 7.632812 -9.59375 L 7.632812 -31.910156 L 8.792969 -31.910156 L 8.792969 -30.75 L 2.226562 -30.75 L 2.226562 -31.910156 L 3.386719 -31.910156 L 3.386719 0 L 2.226562 0 L 2.226562 -1.160156 L 8.792969 -1.160156 L 8.792969 0 L 7.632812 0 L 7.632812 -10.40625 L 17.21875 -0.820312 L 16.398438 0 L 16.398438 -1.160156 L 24.859375 -1.160156 L 24.859375 0 L 24.039062 0.820312 L 13.277344 -9.941406 Z M 23.148438 -19.851562 "/></g></g></g><g fill="#ffb703" fill-opacity="1"><g transform="translate(81.261803, 34.756717)"><g><path d="M 10.5 -20.75 C 11.675781 -20.75 12.839844 -20.617188 13.992188 -20.347656 C 15.136719 -20.082031 16.007812 -19.808594 16.601562 -19.523438 L 18.449219 -18.644531 L 15.234375 -12.21875 L 14.183594 -12.78125 C 12.871094 -13.480469 11.644531 -13.832031 10.5 -13.832031 C 9.949219 -13.832031 9.601562 -13.792969 9.457031 -13.71875 C 9.523438 -13.753906 9.574219 -13.804688 9.609375 -13.875 C 9.617188 -13.890625 9.621094 -13.902344 9.625 -13.914062 C 9.621094 -13.894531 9.621094 -13.871094 9.621094 -13.839844 C 9.621094 -13.835938 9.621094 -13.832031 9.621094 -13.824219 C 9.601562 -13.902344 9.570312 -13.96875 9.527344 -14.019531 C 9.582031 -13.957031 9.628906 -13.902344 9.667969 -13.863281 C 9.640625 -13.890625 9.621094 -13.90625 9.605469 -13.917969 C 9.621094 -13.90625 9.648438 -13.894531 9.683594 -13.875 C 9.8125 -13.8125 9.910156 -13.765625 9.972656 -13.738281 C 10.042969 -13.707031 10.167969 -13.65625 10.351562 -13.589844 L 10.796875 -13.421875 C 10.875 -13.394531 11.023438 -13.34375 11.238281 -13.277344 C 11.433594 -13.214844 11.574219 -13.175781 11.65625 -13.160156 L 11.75 -13.136719 C 12.578125 -12.894531 13.304688 -12.625 13.933594 -12.324219 C 14.570312 -12.019531 15.234375 -11.609375 15.925781 -11.097656 C 16.707031 -10.511719 17.3125 -9.777344 17.742188 -8.890625 C 18.164062 -8.011719 18.375 -7.027344 18.375 -5.9375 C 18.375 -3.375 17.464844 -1.4375 15.640625 -0.125 C 13.933594 1.101562 11.453125 1.714844 8.199219 1.714844 C 6.710938 1.714844 5.292969 1.484375 3.945312 1.023438 C 2.601562 0.5625 1.605469 0.0820312 0.960938 -0.417969 L 0.949219 -0.429688 L -0.652344 -1.738281 L 3.242188 -8.28125 L 4.289062 -7.367188 C 4.460938 -7.214844 4.695312 -7.03125 4.988281 -6.816406 C 5.253906 -6.625 5.777344 -6.335938 6.554688 -5.960938 C 7.234375 -5.628906 7.796875 -5.464844 8.238281 -5.464844 C 8.679688 -5.464844 8.976562 -5.511719 9.121094 -5.609375 L 9.125 -5.613281 C 9.121094 -5.605469 9.113281 -5.597656 9.109375 -5.589844 C 9.117188 -5.601562 9.117188 -5.628906 9.117188 -5.675781 C 9.117188 -5.6875 9.113281 -5.695312 9.105469 -5.699219 C 8.84375 -5.878906 8.339844 -6.101562 7.605469 -6.367188 C 6.726562 -6.679688 6.027344 -6.976562 5.507812 -7.246094 C 4.199219 -7.929688 3.148438 -8.714844 2.363281 -9.601562 C 1.472656 -10.597656 1.03125 -11.886719 1.03125 -13.46875 C 1.03125 -15.792969 1.9375 -17.609375 3.757812 -18.917969 C 5.457031 -20.140625 7.703125 -20.75 10.5 -20.75 Z M 10.5 -18.429688 C 8.203125 -18.429688 6.40625 -17.964844 5.109375 -17.035156 C 3.9375 -16.191406 3.347656 -15 3.347656 -13.46875 C 3.347656 -12.476562 3.597656 -11.699219 4.09375 -11.140625 C 4.691406 -10.46875 5.523438 -9.855469 6.589844 -9.300781 C 7.011719 -9.078125 7.609375 -8.828125 8.386719 -8.550781 C 9.308594 -8.21875 9.980469 -7.910156 10.410156 -7.621094 C 11.09375 -7.15625 11.4375 -6.507812 11.4375 -5.675781 C 11.4375 -4.808594 11.097656 -4.144531 10.414062 -3.683594 C 9.878906 -3.324219 9.152344 -3.144531 8.238281 -3.144531 C 7.441406 -3.144531 6.542969 -3.386719 5.542969 -3.871094 C 4.636719 -4.3125 3.996094 -4.667969 3.621094 -4.945312 C 3.269531 -5.199219 2.984375 -5.425781 2.761719 -5.621094 L 3.523438 -6.492188 L 4.519531 -5.898438 L 1.851562 -1.410156 L 0.851562 -2.003906 L 1.585938 -2.902344 L 2.402344 -2.234375 L 1.667969 -1.335938 L 2.378906 -2.253906 C 2.820312 -1.910156 3.59375 -1.550781 4.699219 -1.171875 C 5.800781 -0.792969 6.96875 -0.601562 8.199219 -0.601562 C 10.957031 -0.601562 12.984375 -1.070312 14.285156 -2.007812 C 15.464844 -2.859375 16.058594 -4.167969 16.058594 -5.9375 C 16.058594 -6.675781 15.921875 -7.324219 15.652344 -7.882812 C 15.386719 -8.429688 15.015625 -8.878906 14.539062 -9.238281 C 13.96875 -9.660156 13.433594 -9.992188 12.929688 -10.234375 C 12.417969 -10.476562 11.8125 -10.703125 11.105469 -10.90625 L 11.429688 -12.023438 L 11.199219 -10.882812 C 11.035156 -10.917969 10.816406 -10.976562 10.539062 -11.0625 C 10.285156 -11.144531 10.101562 -11.207031 9.980469 -11.25 L 9.535156 -11.417969 C 9.320312 -11.5 9.164062 -11.5625 9.058594 -11.605469 C 8.953125 -11.652344 8.816406 -11.714844 8.644531 -11.800781 C 8.386719 -11.929688 8.179688 -12.070312 8.03125 -12.222656 C 7.945312 -12.304688 7.859375 -12.402344 7.765625 -12.511719 C 7.570312 -12.734375 7.441406 -12.984375 7.371094 -13.261719 C 7.324219 -13.453125 7.300781 -13.644531 7.300781 -13.839844 C 7.300781 -14.25 7.382812 -14.609375 7.542969 -14.929688 C 7.734375 -15.300781 8.015625 -15.582031 8.386719 -15.777344 C 8.867188 -16.027344 9.570312 -16.148438 10.5 -16.148438 C 12.03125 -16.148438 13.621094 -15.707031 15.277344 -14.824219 L 14.730469 -13.800781 L 13.691406 -14.320312 L 15.84375 -18.625 L 16.882812 -18.105469 L 16.382812 -17.058594 L 15.605469 -17.429688 C 15.160156 -17.640625 14.449219 -17.863281 13.464844 -18.089844 C 12.488281 -18.316406 11.5 -18.429688 10.5 -18.429688 Z M 10.5 -18.429688 "/></g></g></g><g fill="#ffb703" fill-opacity="1"><g transform="translate(96.210091, 34.756717)"><g><path d="M 22.671875 -17.460938 C 24.65625 -15.296875 25.648438 -12.65625 25.648438 -9.535156 C 25.648438 -6.417969 24.65625 -3.769531 22.675781 -1.59375 C 20.664062 0.613281 18.113281 1.714844 15.027344 1.714844 C 12.191406 1.714844 9.84375 0.816406 7.988281 -0.984375 L 8.792969 -1.816406 L 9.953125 -1.816406 L 9.953125 10.804688 L 1.066406 10.804688 L 1.066406 -20.195312 L 9.878906 -20.195312 L 9.878906 -16.882812 L 8.71875 -16.882812 L 8.71875 -18.042969 L 8.792969 -18.042969 L 8.792969 -16.882812 L 7.933594 -17.660156 C 9.796875 -19.71875 12.160156 -20.75 15.027344 -20.75 C 18.113281 -20.75 20.660156 -19.65625 22.671875 -17.460938 Z M 20.960938 -15.894531 C 19.410156 -17.585938 17.433594 -18.429688 15.027344 -18.429688 C 12.847656 -18.429688 11.054688 -17.65625 9.652344 -16.105469 L 9.308594 -15.722656 L 7.558594 -15.722656 L 7.558594 -19.035156 L 8.71875 -19.035156 L 8.71875 -17.875 L 2.226562 -17.875 L 2.226562 -19.035156 L 3.386719 -19.035156 L 3.386719 9.648438 L 2.226562 9.648438 L 2.226562 8.488281 L 8.792969 8.488281 L 8.792969 9.648438 L 7.632812 9.648438 L 7.632812 -4.558594 L 9.601562 -2.652344 C 11.007812 -1.285156 12.816406 -0.601562 15.027344 -0.601562 C 17.429688 -0.601562 19.410156 -1.453125 20.960938 -3.15625 C 22.539062 -4.886719 23.328125 -7.015625 23.328125 -9.535156 C 23.328125 -12.054688 22.539062 -14.175781 20.960938 -15.894531 Z M 15.417969 -7.132812 C 16.042969 -7.746094 16.351562 -8.546875 16.351562 -9.535156 C 16.351562 -10.53125 16.054688 -11.328125 15.460938 -11.929688 C 14.875 -12.53125 14.074219 -12.828125 13.0625 -12.828125 C 12.097656 -12.828125 11.316406 -12.523438 10.714844 -11.914062 C 10.109375 -11.296875 9.804688 -10.503906 9.804688 -9.535156 C 9.804688 -8.546875 10.117188 -7.746094 10.738281 -7.132812 C 11.367188 -6.515625 12.140625 -6.207031 13.0625 -6.207031 C 14.003906 -6.207031 14.792969 -6.515625 15.417969 -7.132812 Z M 17.046875 -5.480469 C 15.96875 -4.417969 14.640625 -3.886719 13.0625 -3.886719 C 11.507812 -3.886719 10.191406 -4.417969 9.113281 -5.480469 C 8.027344 -6.550781 7.484375 -7.902344 7.484375 -9.535156 C 7.484375 -11.140625 8.011719 -12.472656 9.0625 -13.539062 C 10.117188 -14.613281 11.449219 -15.148438 13.0625 -15.148438 C 14.71875 -15.148438 16.070312 -14.617188 17.113281 -13.558594 C 18.152344 -12.503906 18.671875 -11.164062 18.671875 -9.535156 C 18.671875 -7.902344 18.128906 -6.550781 17.046875 -5.480469 Z M 17.046875 -5.480469 "/></g></g></g><g fill="#ffb703" fill-opacity="1"><g transform="translate(118.243538, 34.756717)"><g><path d="M 2.671875 -1.574219 C 0.6875 -3.734375 -0.304688 -6.378906 -0.304688 -9.5 C -0.304688 -12.617188 0.683594 -15.265625 2.667969 -17.441406 C 4.679688 -19.648438 7.226562 -20.75 10.316406 -20.75 C 13.152344 -20.75 15.5 -19.851562 17.355469 -18.046875 L 16.546875 -17.214844 L 15.390625 -17.214844 L 15.390625 -20.195312 L 24.273438 -20.195312 L 24.273438 1.160156 L 15.464844 1.160156 L 15.464844 -2.152344 L 16.621094 -2.152344 L 16.621094 -0.992188 L 16.546875 -0.992188 L 16.546875 -2.152344 L 17.410156 -1.375 C 15.546875 0.6875 13.179688 1.714844 10.316406 1.714844 C 7.230469 1.714844 4.679688 0.621094 2.671875 -1.574219 Z M 4.378906 -3.140625 C 5.929688 -1.449219 7.910156 -0.601562 10.316406 -0.601562 C 12.496094 -0.601562 14.285156 -1.378906 15.6875 -2.929688 L 16.035156 -3.3125 L 17.78125 -3.3125 L 17.78125 0 L 16.621094 0 L 16.621094 -1.160156 L 23.117188 -1.160156 L 23.117188 0 L 21.957031 0 L 21.957031 -19.035156 L 23.117188 -19.035156 L 23.117188 -17.875 L 16.546875 -17.875 L 16.546875 -19.035156 L 17.707031 -19.035156 L 17.707031 -14.476562 L 15.742188 -16.382812 C 14.332031 -17.75 12.523438 -18.429688 10.316406 -18.429688 C 7.910156 -18.429688 5.933594 -17.582031 4.382812 -15.878906 C 2.800781 -14.144531 2.011719 -12.019531 2.011719 -9.5 C 2.011719 -6.980469 2.800781 -4.859375 4.378906 -3.140625 Z M 9.921875 -11.902344 C 9.300781 -11.285156 8.988281 -10.484375 8.988281 -9.5 C 8.988281 -8.503906 9.285156 -7.707031 9.878906 -7.101562 C 10.46875 -6.503906 11.269531 -6.207031 12.28125 -6.207031 C 13.242188 -6.207031 14.027344 -6.511719 14.628906 -7.121094 C 15.234375 -7.738281 15.539062 -8.527344 15.539062 -9.5 C 15.539062 -10.484375 15.226562 -11.285156 14.601562 -11.902344 C 13.976562 -12.519531 13.203125 -12.828125 12.28125 -12.828125 C 11.335938 -12.828125 10.550781 -12.519531 9.921875 -11.902344 Z M 8.296875 -13.550781 C 9.375 -14.617188 10.703125 -15.148438 12.28125 -15.148438 C 13.835938 -15.148438 15.152344 -14.617188 16.230469 -13.550781 C 17.3125 -12.484375 17.855469 -11.132812 17.855469 -9.5 C 17.855469 -7.894531 17.332031 -6.5625 16.28125 -5.492188 C 15.222656 -4.421875 13.890625 -3.886719 12.28125 -3.886719 C 10.621094 -3.886719 9.269531 -4.417969 8.226562 -5.476562 C 7.1875 -6.53125 6.667969 -7.871094 6.667969 -9.5 C 6.667969 -11.132812 7.210938 -12.484375 8.296875 -13.550781 Z M 8.296875 -13.550781 "/></g></g></g><g fill="#ffb703" fill-opacity="1"><g transform="translate(140.276985, 34.756717)"><g><path d="M 1.066406 0 L 1.066406 -20.195312 L 9.953125 -20.195312 L 9.953125 -16.289062 L 8.792969 -16.289062 L 8.792969 -17.449219 L 8.867188 -17.449219 L 8.867188 -16.289062 L 7.832031 -16.808594 C 7.910156 -16.96875 8.027344 -17.152344 8.179688 -17.355469 C 8.324219 -17.546875 8.601562 -17.847656 9.011719 -18.257812 C 9.429688 -18.675781 9.875 -19.054688 10.351562 -19.386719 C 10.859375 -19.746094 11.5 -20.0625 12.265625 -20.332031 C 13.058594 -20.609375 13.867188 -20.75 14.691406 -20.75 C 15.519531 -20.75 16.328125 -20.636719 17.125 -20.410156 C 17.921875 -20.183594 18.523438 -19.941406 18.9375 -19.6875 L 18.328125 -18.699219 L 18.90625 -19.707031 L 20.371094 -18.867188 L 16.484375 -10.992188 L 15.351562 -11.953125 C 14.753906 -12.460938 13.863281 -12.71875 12.691406 -12.71875 C 12.113281 -12.71875 11.636719 -12.601562 11.25 -12.367188 C 10.878906 -12.140625 10.625 -11.882812 10.492188 -11.597656 C 10.28125 -11.160156 10.136719 -10.800781 10.058594 -10.515625 C 9.988281 -10.273438 9.953125 -10.109375 9.953125 -10.019531 L 9.953125 1.160156 L 1.066406 1.160156 Z M 3.386719 0 L 2.226562 0 L 2.226562 -1.160156 L 8.792969 -1.160156 L 8.792969 0 L 7.632812 0 L 7.632812 -10.019531 C 7.632812 -10.324219 7.699219 -10.703125 7.828125 -11.152344 C 7.945312 -11.5625 8.132812 -12.039062 8.394531 -12.59375 C 8.730469 -13.296875 9.28125 -13.882812 10.046875 -14.347656 C 10.800781 -14.808594 11.679688 -15.035156 12.691406 -15.035156 C 14.433594 -15.035156 15.820312 -14.597656 16.851562 -13.722656 L 16.101562 -12.839844 L 15.0625 -13.351562 L 17.808594 -18.917969 L 18.847656 -18.402344 L 18.273438 -17.398438 L 17.738281 -17.703125 L 17.722656 -17.710938 C 17.492188 -17.855469 17.078125 -18.011719 16.488281 -18.179688 C 15.902344 -18.347656 15.300781 -18.429688 14.691406 -18.429688 C 14.132812 -18.429688 13.582031 -18.335938 13.039062 -18.144531 C 12.472656 -17.945312 12.019531 -17.726562 11.6875 -17.492188 C 11.320312 -17.234375 10.976562 -16.941406 10.652344 -16.617188 C 10.320312 -16.285156 10.113281 -16.070312 10.035156 -15.964844 C 9.96875 -15.871094 9.921875 -15.808594 9.90625 -15.769531 L 9.585938 -15.128906 L 7.632812 -15.128906 L 7.632812 -19.035156 L 8.792969 -19.035156 L 8.792969 -17.875 L 2.226562 -17.875 L 2.226562 -19.035156 L 3.386719 -19.035156 Z M 3.386719 0 "/></g></g></g><g clip-path="url(#e12a6c3f65)"><g fill="#ffb703" fill-opacity="1"><g transform="translate(155.447839, 34.756717)"><g><path d="M 24.789062 -18.214844 L 15.738281 -9.125 L 14.914062 -9.945312 L 15.734375 -10.765625 L 27.660156 1.160156 L 15.917969 1.160156 L 7.972656 -6.785156 L 8.792969 -7.605469 L 9.953125 -7.605469 L 9.953125 1.160156 L 1.066406 1.160156 L 1.066406 -33.070312 L 9.953125 -33.070312 L 9.953125 -12.394531 L 8.792969 -12.394531 L 7.972656 -13.210938 L 14.953125 -20.195312 L 26.761719 -20.195312 Z M 23.148438 -19.851562 L 23.96875 -19.035156 L 23.96875 -17.875 L 15.433594 -17.875 L 15.433594 -19.035156 L 16.253906 -18.214844 L 7.632812 -9.59375 L 7.632812 -31.910156 L 8.792969 -31.910156 L 8.792969 -30.75 L 2.226562 -30.75 L 2.226562 -31.910156 L 3.386719 -31.910156 L 3.386719 0 L 2.226562 0 L 2.226562 -1.160156 L 8.792969 -1.160156 L 8.792969 0 L 7.632812 0 L 7.632812 -10.40625 L 17.21875 -0.820312 L 16.398438 0 L 16.398438 -1.160156 L 24.859375 -1.160156 L 24.859375 0 L 24.039062 0.820312 L 13.277344 -9.941406 Z M 23.148438 -19.851562 "/></g></g></g></g><g fill="#023047" fill-opacity="1"><g transform="translate(0.585159, 34.756717)"><g><path d="M 21.828125 -16.65625 C 23.609375 -14.707031 24.5 -12.320312 24.5 -9.5 C 24.5 -6.675781 23.609375 -4.289062 21.828125 -2.34375 C 20.046875 -0.40625 17.78125 0.5625 15.03125 0.5625 C 12.507812 0.5625 10.429688 -0.34375 8.796875 -2.15625 L 8.71875 -2.15625 L 8.71875 0 L 2.234375 0 L 2.234375 -31.921875 L 8.796875 -31.921875 L 8.796875 -17.21875 C 10.429688 -18.800781 12.507812 -19.59375 15.03125 -19.59375 C 17.78125 -19.59375 20.046875 -18.613281 21.828125 -16.65625 Z M 16.28125 -6.28125 C 17.101562 -7.113281 17.515625 -8.1875 17.515625 -9.5 C 17.515625 -10.8125 17.085938 -11.882812 16.234375 -12.71875 C 15.378906 -13.5625 14.320312 -13.984375 13.0625 -13.984375 C 11.820312 -13.984375 10.773438 -13.5625 9.921875 -12.71875 C 9.066406 -11.882812 8.640625 -10.8125 8.640625 -9.5 C 8.640625 -8.21875 9.054688 -7.15625 9.890625 -6.3125 C 10.722656 -5.46875 11.78125 -5.046875 13.0625 -5.046875 C 14.394531 -5.046875 15.46875 -5.457031 16.28125 -6.28125 Z M 16.28125 -6.28125 "/></g></g></g><g fill="#023047" fill-opacity="1"><g transform="translate(22.618607, 34.756717)"><g><path d="M 2.234375 0 L 2.234375 -19.03125 L 8.796875 -19.03125 L 8.796875 -16.296875 L 8.875 -16.296875 C 8.914062 -16.390625 8.992188 -16.507812 9.109375 -16.65625 C 9.222656 -16.8125 9.460938 -17.070312 9.828125 -17.4375 C 10.203125 -17.8125 10.597656 -18.144531 11.015625 -18.4375 C 11.441406 -18.738281 11.988281 -19.003906 12.65625 -19.234375 C 13.320312 -19.472656 14.003906 -19.59375 14.703125 -19.59375 C 15.410156 -19.59375 16.109375 -19.492188 16.796875 -19.296875 C 17.492188 -19.097656 18.003906 -18.898438 18.328125 -18.703125 L 18.859375 -18.40625 L 16.109375 -12.84375 C 15.285156 -13.53125 14.144531 -13.875 12.6875 -13.875 C 11.894531 -13.875 11.210938 -13.703125 10.640625 -13.359375 C 10.078125 -13.015625 9.675781 -12.59375 9.4375 -12.09375 C 9.207031 -11.601562 9.039062 -11.179688 8.9375 -10.828125 C 8.84375 -10.484375 8.796875 -10.210938 8.796875 -10.015625 L 8.796875 0 Z M 2.234375 0 "/></g></g></g><g fill="#023047" fill-opacity="1"><g transform="translate(37.789461, 34.756717)"><g><path d="M 2.859375 -29.640625 C 3.628906 -30.410156 4.546875 -30.796875 5.609375 -30.796875 C 6.671875 -30.796875 7.582031 -30.410156 8.34375 -29.640625 C 9.113281 -28.878906 9.5 -27.96875 9.5 -26.90625 C 9.5 -25.84375 9.113281 -24.925781 8.34375 -24.15625 C 7.582031 -23.394531 6.671875 -23.015625 5.609375 -23.015625 C 4.546875 -23.015625 3.628906 -23.394531 2.859375 -24.15625 C 2.085938 -24.925781 1.703125 -25.84375 1.703125 -26.90625 C 1.703125 -27.96875 2.085938 -28.878906 2.859375 -29.640625 Z M 2.234375 -19.03125 L 2.234375 0 L 8.796875 0 L 8.796875 -19.03125 Z M 2.234375 -19.03125 "/></g></g></g><g fill="#023047" fill-opacity="1"><g transform="translate(45.689686, 34.756717)"><g><path d="M 12.359375 -14.21875 C 11.117188 -14.21875 10.050781 -13.757812 9.15625 -12.84375 C 8.269531 -11.925781 7.828125 -10.820312 7.828125 -9.53125 C 7.828125 -8.226562 8.269531 -7.117188 9.15625 -6.203125 C 10.050781 -5.285156 11.117188 -4.828125 12.359375 -4.828125 C 12.953125 -4.828125 13.515625 -4.898438 14.046875 -5.046875 C 14.578125 -5.191406 14.96875 -5.34375 15.21875 -5.5 L 15.546875 -5.71875 L 17.78125 -1.15625 C 17.601562 -1.03125 17.359375 -0.875 17.046875 -0.6875 C 16.742188 -0.5 16.039062 -0.242188 14.9375 0.078125 C 13.832031 0.398438 12.648438 0.5625 11.390625 0.5625 C 8.597656 0.5625 6.144531 -0.421875 4.03125 -2.390625 C 1.914062 -4.359375 0.859375 -6.71875 0.859375 -9.46875 C 0.859375 -12.238281 1.914062 -14.617188 4.03125 -16.609375 C 6.144531 -18.597656 8.597656 -19.59375 11.390625 -19.59375 C 12.648438 -19.59375 13.8125 -19.441406 14.875 -19.140625 C 15.945312 -18.847656 16.703125 -18.554688 17.140625 -18.265625 L 17.78125 -17.8125 L 15.546875 -13.328125 C 14.734375 -13.921875 13.671875 -14.21875 12.359375 -14.21875 Z M 12.359375 -14.21875 "/></g></g></g><g fill="#023047" fill-opacity="1"><g transform="translate(60.600878, 34.756717)"><g><path d="M 23.96875 -19.03125 L 14.921875 -9.953125 L 24.859375 0 L 16.40625 0 L 8.796875 -7.609375 L 8.796875 0 L 2.234375 0 L 2.234375 -31.921875 L 8.796875 -31.921875 L 8.796875 -12.390625 L 15.4375 -19.03125 Z M 23.96875 -19.03125 "/></g></g></g><g fill="#023047" fill-opacity="1"><g transform="translate(81.261803, 34.756717)"><g><path d="M 10.5 -19.59375 C 11.59375 -19.59375 12.671875 -19.46875 13.734375 -19.21875 C 14.796875 -18.976562 15.585938 -18.734375 16.109375 -18.484375 L 16.890625 -18.109375 L 14.734375 -13.8125 C 13.242188 -14.601562 11.832031 -15 10.5 -15 C 9.757812 -15 9.234375 -14.914062 8.921875 -14.75 C 8.617188 -14.59375 8.46875 -14.289062 8.46875 -13.84375 C 8.46875 -13.738281 8.476562 -13.632812 8.5 -13.53125 C 8.519531 -13.4375 8.566406 -13.347656 8.640625 -13.265625 C 8.722656 -13.179688 8.789062 -13.109375 8.84375 -13.046875 C 8.90625 -12.984375 9.007812 -12.914062 9.15625 -12.84375 C 9.3125 -12.769531 9.429688 -12.710938 9.515625 -12.671875 C 9.609375 -12.640625 9.753906 -12.582031 9.953125 -12.5 C 10.148438 -12.425781 10.296875 -12.367188 10.390625 -12.328125 C 10.492188 -12.296875 10.660156 -12.242188 10.890625 -12.171875 C 11.128906 -12.097656 11.3125 -12.050781 11.4375 -12.03125 C 12.195312 -11.800781 12.859375 -11.550781 13.421875 -11.28125 C 13.992188 -11.007812 14.597656 -10.640625 15.234375 -10.171875 C 15.867188 -9.703125 16.359375 -9.109375 16.703125 -8.390625 C 17.046875 -7.671875 17.21875 -6.851562 17.21875 -5.9375 C 17.21875 -1.601562 14.210938 0.5625 8.203125 0.5625 C 6.835938 0.5625 5.539062 0.351562 4.3125 -0.0625 C 3.09375 -0.488281 2.210938 -0.914062 1.671875 -1.34375 L 0.859375 -2 L 3.53125 -6.5 C 3.726562 -6.320312 3.984375 -6.113281 4.296875 -5.875 C 4.617188 -5.644531 5.203125 -5.328125 6.046875 -4.921875 C 6.890625 -4.515625 7.617188 -4.3125 8.234375 -4.3125 C 9.597656 -4.3125 10.28125 -4.765625 10.28125 -5.671875 C 10.28125 -6.097656 10.101562 -6.425781 9.75 -6.65625 C 9.40625 -6.894531 8.816406 -7.160156 7.984375 -7.453125 C 7.160156 -7.753906 6.515625 -8.03125 6.046875 -8.28125 C 4.859375 -8.894531 3.914062 -9.59375 3.21875 -10.375 C 2.53125 -11.15625 2.1875 -12.1875 2.1875 -13.46875 C 2.1875 -15.394531 2.9375 -16.894531 4.4375 -17.96875 C 5.9375 -19.050781 7.957031 -19.59375 10.5 -19.59375 Z M 10.5 -19.59375 "/></g></g></g><g fill="#023047" fill-opacity="1"><g transform="translate(96.210091, 34.756717)"><g><path d="M 21.828125 -16.671875 C 23.609375 -14.734375 24.5 -12.351562 24.5 -9.53125 C 24.5 -6.71875 23.609375 -4.332031 21.828125 -2.375 C 20.046875 -0.414062 17.78125 0.5625 15.03125 0.5625 C 12.507812 0.5625 10.429688 -0.226562 8.796875 -1.8125 L 8.796875 9.65625 L 2.234375 9.65625 L 2.234375 -19.03125 L 8.71875 -19.03125 L 8.71875 -16.890625 L 8.796875 -16.890625 C 10.429688 -18.691406 12.507812 -19.59375 15.03125 -19.59375 C 17.78125 -19.59375 20.046875 -18.617188 21.828125 -16.671875 Z M 16.234375 -6.3125 C 17.085938 -7.15625 17.515625 -8.226562 17.515625 -9.53125 C 17.515625 -10.84375 17.101562 -11.910156 16.28125 -12.734375 C 15.46875 -13.566406 14.394531 -13.984375 13.0625 -13.984375 C 11.78125 -13.984375 10.722656 -13.5625 9.890625 -12.71875 C 9.054688 -11.882812 8.640625 -10.820312 8.640625 -9.53125 C 8.640625 -8.226562 9.066406 -7.15625 9.921875 -6.3125 C 10.773438 -5.46875 11.820312 -5.046875 13.0625 -5.046875 C 14.320312 -5.046875 15.378906 -5.46875 16.234375 -6.3125 Z M 16.234375 -6.3125 "/></g></g></g><g fill="#023047" fill-opacity="1"><g transform="translate(118.243538, 34.756717)"><g><path d="M 3.53125 -2.34375 C 1.75 -4.289062 0.859375 -6.675781 0.859375 -9.5 C 0.859375 -12.320312 1.75 -14.707031 3.53125 -16.65625 C 5.3125 -18.613281 7.570312 -19.59375 10.3125 -19.59375 C 12.84375 -19.59375 14.921875 -18.800781 16.546875 -17.21875 L 16.546875 -19.03125 L 23.125 -19.03125 L 23.125 0 L 16.625 0 L 16.625 -2.15625 L 16.546875 -2.15625 C 14.921875 -0.34375 12.84375 0.5625 10.3125 0.5625 C 7.570312 0.5625 5.3125 -0.40625 3.53125 -2.34375 Z M 9.109375 -12.71875 C 8.253906 -11.882812 7.828125 -10.8125 7.828125 -9.5 C 7.828125 -8.1875 8.234375 -7.113281 9.046875 -6.28125 C 9.867188 -5.457031 10.945312 -5.046875 12.28125 -5.046875 C 13.570312 -5.046875 14.628906 -5.46875 15.453125 -6.3125 C 16.285156 -7.15625 16.703125 -8.21875 16.703125 -9.5 C 16.703125 -10.8125 16.273438 -11.882812 15.421875 -12.71875 C 14.566406 -13.5625 13.519531 -13.984375 12.28125 -13.984375 C 11.019531 -13.984375 9.960938 -13.5625 9.109375 -12.71875 Z M 9.109375 -12.71875 "/></g></g></g><g fill="#023047" fill-opacity="1"><g transform="translate(140.276985, 34.756717)"><g><path d="M 2.234375 0 L 2.234375 -19.03125 L 8.796875 -19.03125 L 8.796875 -16.296875 L 8.875 -16.296875 C 8.914062 -16.390625 8.992188 -16.507812 9.109375 -16.65625 C 9.222656 -16.8125 9.460938 -17.070312 9.828125 -17.4375 C 10.203125 -17.8125 10.597656 -18.144531 11.015625 -18.4375 C 11.441406 -18.738281 11.988281 -19.003906 12.65625 -19.234375 C 13.320312 -19.472656 14.003906 -19.59375 14.703125 -19.59375 C 15.410156 -19.59375 16.109375 -19.492188 16.796875 -19.296875 C 17.492188 -19.097656 18.003906 -18.898438 18.328125 -18.703125 L 18.859375 -18.40625 L 16.109375 -12.84375 C 15.285156 -13.53125 14.144531 -13.875 12.6875 -13.875 C 11.894531 -13.875 11.210938 -13.703125 10.640625 -13.359375 C 10.078125 -13.015625 9.675781 -12.59375 9.4375 -12.09375 C 9.207031 -11.601562 9.039062 -11.179688 8.9375 -10.828125 C 8.84375 -10.484375 8.796875 -10.210938 8.796875 -10.015625 L 8.796875 0 Z M 2.234375 0 "/></g></g></g><g fill="#023047" fill-opacity="1"><g transform="translate(155.447839, 34.756717)"><g><path d="M 23.96875 -19.03125 L 14.921875 -9.953125 L 24.859375 0 L 16.40625 0 L 8.796875 -7.609375 L 8.796875 0 L 2.234375 0 L 2.234375 -31.921875 L 8.796875 -31.921875 L 8.796875 -12.390625 L 15.4375 -19.03125 Z M 23.96875 -19.03125 "/></g></g></g></g></g><g clip-path="url(#347001a9da)"><g transform="matrix(1, 0, 0, 1, 126, 32)"><g clip-path="url(#afc2715104)"><g clip-path="url(#79df56c092)"><path fill="#023047" d="M 0.480469 0.332031 L 12.183594 0.332031 L 12.183594 11.464844 L 0.480469 11.464844 Z M 0.480469 0.332031 " fill-opacity="1" fill-rule="nonzero"/></g></g></g></g><g clip-path="url(#6b0e787a05)"><path fill="#ffffff" d="M 132.433594 32.839844 L 132.433594 35.546875 L 135.476562 34.292969 L 133.054688 37.683594 L 135.476562 39.667969 L 132.8125 39.667969 L 134.265625 43.5 L 130.503906 40.425781 L 126.027344 43.5 L 128.28125 39.308594 L 124.816406 38.65625 L 128.078125 37.316406 L 124.816406 32.839844 L 129.050781 35.320312 L 128.984375 32.839844 L 130.730469 35.097656 L 132.433594 32.839844 " fill-opacity="1" fill-rule="nonzero"/><path fill="#ffb703" d="M 132.433594 32.839844 L 130.730469 35.097656 L 128.984375 32.839844 L 129.050781 35.320312 L 124.816406 32.839844 L 128.078125 37.316406 L 124.816406 38.65625 L 128.28125 39.308594 L 126.027344 43.5 L 130.503906 40.425781 L 134.265625 43.5 L 132.8125 39.667969 L 135.476562 39.667969 L 133.054688 37.683594 L 135.476562 34.292969 L 132.433594 35.546875 Z M 131.304688 36.210938 L 131.304688 37.234375 L 132.273438 36.832031 L 132.136719 37.027344 L 131.519531 37.886719 L 132.316406 38.539062 L 131.179688 38.539062 L 131.71875 39.960938 L 131.21875 39.550781 L 130.5625 39.015625 L 129.863281 39.496094 L 129.230469 39.933594 L 129.277344 39.84375 L 130.007812 38.488281 L 128.765625 38.253906 L 129.839844 37.8125 L 128.992188 36.648438 L 128.917969 36.550781 L 130.230469 37.320312 L 130.203125 36.257812 L 130.742188 36.957031 L 131.304688 36.210938 " fill-opacity="1" fill-rule="nonzero"/><path fill="#d62828" d="M 132.433594 32.839844 L 130.730469 35.097656 L 128.984375 32.839844 L 129.050781 35.320312 L 124.816406 32.839844 L 128.078125 37.316406 L 124.816406 38.65625 L 128.28125 39.308594 L 126.027344 43.5 L 130.503906 40.425781 L 134.265625 43.5 L 132.8125 39.667969 L 135.476562 39.667969 L 133.054688 37.683594 L 135.476562 34.292969 L 132.433594 35.546875 Z M 131.867188 34.527344 L 131.867188 36.390625 L 132.648438 36.070312 L 133.875 35.5625 L 132.59375 37.355469 L 132.285156 37.785156 L 132.695312 38.121094 L 133.898438 39.101562 L 131.996094 39.101562 L 132.285156 39.867188 L 132.992188 41.730469 L 130.859375 39.988281 L 130.53125 39.71875 L 130.183594 39.960938 L 127.628906 41.71875 L 128.78125 39.578125 L 129.144531 38.898438 L 128.386719 38.753906 L 126.792969 38.453125 L 128.292969 37.835938 L 128.960938 37.5625 L 128.535156 36.984375 L 126.867188 34.695312 L 128.765625 35.808594 L 129.640625 36.320312 L 129.613281 35.304688 L 129.59375 34.550781 L 130.285156 35.441406 L 130.738281 36.027344 L 131.179688 35.4375 L 131.867188 34.527344 " fill-opacity="1" fill-rule="nonzero"/></g><g clip-path="url(#c6915ad6fa)"><path fill="#023047" d="M 132.433594 32.332031 C 132.277344 32.332031 132.125 32.40625 132.027344 32.535156 L 130.726562 34.261719 L 129.386719 32.53125 C 129.285156 32.402344 129.136719 32.332031 128.984375 32.332031 C 128.925781 32.332031 128.867188 32.34375 128.8125 32.363281 C 128.605469 32.4375 128.46875 32.636719 128.476562 32.855469 L 128.519531 34.421875 L 125.074219 32.402344 C 124.992188 32.355469 124.90625 32.332031 124.816406 32.332031 C 124.679688 32.332031 124.539062 32.390625 124.441406 32.5 C 124.28125 32.679688 124.265625 32.945312 124.40625 33.140625 L 127.289062 37.089844 L 124.625 38.1875 C 124.417969 38.273438 124.289062 38.484375 124.3125 38.707031 C 124.335938 38.929688 124.503906 39.113281 124.722656 39.15625 L 127.507812 39.679688 L 125.582031 43.261719 C 125.472656 43.46875 125.515625 43.722656 125.691406 43.878906 C 125.785156 43.964844 125.90625 44.007812 126.027344 44.007812 C 126.128906 44.007812 126.230469 43.980469 126.316406 43.921875 L 130.476562 41.058594 L 133.945312 43.894531 C 134.039062 43.972656 134.152344 44.007812 134.265625 44.007812 C 134.371094 44.007812 134.476562 43.976562 134.5625 43.914062 C 134.75 43.78125 134.824219 43.535156 134.742188 43.320312 L 133.546875 40.171875 L 135.476562 40.171875 C 135.691406 40.171875 135.882812 40.039062 135.957031 39.835938 C 136.027344 39.632812 135.964844 39.410156 135.800781 39.273438 L 133.742188 37.59375 L 135.886719 34.597656 C 135.949219 34.511719 135.984375 34.410156 135.984375 34.292969 C 135.984375 34.023438 135.773438 33.800781 135.503906 33.789062 C 135.496094 33.789062 135.488281 33.785156 135.476562 33.785156 C 135.460938 33.785156 135.441406 33.789062 135.421875 33.789062 C 135.371094 33.796875 135.320312 33.808594 135.273438 33.828125 L 132.941406 34.789062 L 132.941406 32.839844 C 132.941406 32.621094 132.800781 32.429688 132.59375 32.359375 C 132.539062 32.339844 132.484375 32.332031 132.433594 32.332031 Z M 135.476562 34.292969 L 135.480469 34.292969 M 132.433594 32.839844 L 132.433594 35.546875 L 135.476562 34.292969 L 133.054688 37.683594 L 135.476562 39.667969 L 132.8125 39.667969 L 134.265625 43.5 L 130.503906 40.425781 L 126.027344 43.5 L 128.28125 39.308594 L 124.816406 38.65625 L 128.078125 37.316406 L 124.816406 32.839844 L 129.050781 35.320312 L 128.984375 32.839844 L 130.730469 35.097656 L 132.433594 32.839844 " fill-opacity="1" fill-rule="nonzero"/></g><g clip-path="url(#ac0a74207d)"><g clip-path="url(#33dddc6c3e)"><g transform="matrix(1, 0, 0, 1, 42, 29)"><g clip-path="url(#09d844cfd4)"><g clip-path="url(#3d258006a0)"><g clip-path="url(#49cf0c6941)"><path fill="#ffb703" d="M 0.855469 0.738281 L 6.042969 0.738281 L 6.042969 5.925781 L 0.855469 5.925781 Z M 0.855469 0.738281 " fill-opacity="1" fill-rule="nonzero"/></g></g></g></g></g></g><g clip-path="url(#c18940bdc5)"><g clip-path="url(#5d5a1aa2da)"><path stroke-linecap="butt" transform="matrix(0.748005, 0, 0, 0.748005, 42.854903, 29.738537)" fill="none" stroke-linejoin="miter" d="M 3.463089 -0.000341926 C 1.551756 -0.000341926 0.000755987 1.550658 0.000755987 3.461992 C 0.000755987 5.373325 1.551756 6.924325 3.463089 6.924325 C 5.374423 6.924325 6.920201 5.373325 6.920201 3.461992 C 6.920201 1.550658 5.374423 -0.000341926 3.463089 -0.000341926 Z M 3.463089 -0.000341926 " stroke="#023047" stroke-width="2" stroke-opacity="1" stroke-miterlimit="4"/></g></g><g clip-path="url(#008532e62d)"><g clip-path="url(#34c2555827)"><g transform="matrix(1, 0, 0, 1, 42, 35)"><g clip-path="url(#e11bc86842)"><g clip-path="url(#f6a3bf52e6)"><g clip-path="url(#bdb71f5bfd)"><path fill="#ffb703" d="M 0.855469 0.40625 L 6.042969 0.40625 L 6.042969 5.59375 L 0.855469 5.59375 Z M 0.855469 0.40625 " fill-opacity="1" fill-rule="nonzero"/></g></g></g></g></g></g><g clip-path="url(#94458af1b0)"><g clip-path="url(#0577364180)"><path stroke-linecap="butt" transform="matrix(0.748005, 0, 0, 0.748005, 42.854903, 35.407221)" fill="none" stroke-linejoin="miter" d="M 3.463089 -0.00129813 C 1.551756 -0.00129813 0.000755987 1.549702 0.000755987 3.461035 C 0.000755987 5.372369 1.551756 6.923369 3.463089 6.923369 C 5.374423 6.923369 6.920201 5.372369 6.920201 3.461035 C 6.920201 1.549702 5.374423 -0.00129813 3.463089 -0.00129813 Z M 3.463089 -0.00129813 " stroke="#023047" stroke-width="2" stroke-opacity="1" stroke-miterlimit="4"/></g></g><g clip-path="url(#5080aa1324)"><g clip-path="url(#d3bb46ea0e)"><g transform="matrix(1, 0, 0, 1, 42, 40)"><g clip-path="url(#a5af8a4938)"><g clip-path="url(#c870f6a7ec)"><g clip-path="url(#1728dfdde5)"><path fill="#ffb703" d="M 0.855469 0.871094 L 6.042969 0.871094 L 6.042969 6.058594 L 0.855469 6.058594 Z M 0.855469 0.871094 " fill-opacity="1" fill-rule="nonzero"/></g></g></g></g></g></g><g clip-path="url(#0a99588577)"><g clip-path="url(#5fd51c7c3b)"><path stroke-linecap="butt" transform="matrix(0.748005, 0, 0, 0.748005, 42.854903, 40.872978)" fill="none" stroke-linejoin="miter" d="M 3.463089 -0.00251901 C 1.551756 -0.00251901 0.000755987 1.548481 0.000755987 3.459814 C 0.000755987 5.371148 1.551756 6.922148 3.463089 6.922148 C 5.374423 6.922148 6.920201 5.371148 6.920201 3.459814 C 6.920201 1.548481 5.374423 -0.00251901 3.463089 -0.00251901 Z M 3.463089 -0.00251901 " stroke="#023047" stroke-width="2" stroke-opacity="1" stroke-miterlimit="4"/></g></g><g clip-path="url(#6f10e20d8c)"><g clip-path="url(#5056b68451)"><g transform="matrix(1, 0, 0, 1, 41, 16)"><g clip-path="url(#465b5a4a7b)"><g clip-path="url(#042f7746b8)"><g clip-path="url(#f48d26f758)"><path fill="#023047" d="M 0.269531 0.539062 L 8.628906 0.539062 L 8.628906 8.863281 L 0.269531 8.863281 Z M 0.269531 0.539062 " fill-opacity="1" fill-rule="nonzero"/></g></g></g></g></g></g></svg>